<svg width="21" height="24" viewBox="0 0 21 24" fill="none" xmlns="http://www.w3.org/2000/svg">
<path d="M19.7806 18.424C19.4327 19.2275 19.021 19.9672 18.544 20.6472C17.8938 21.5743 17.3614 22.216 16.9511 22.5724C16.315 23.1573 15.6336 23.4568 14.9039 23.4739C14.38 23.4739 13.7482 23.3248 13.0128 23.0224C12.275 22.7214 11.5969 22.5724 10.9769 22.5724C10.3267 22.5724 9.62935 22.7214 8.88343 23.0224C8.13638 23.3248 7.53456 23.4824 7.07444 23.498C6.37466 23.5278 5.67716 23.2197 4.98093 22.5724C4.53656 22.1848 3.98075 21.5204 3.3149 20.5791C2.60051 19.5739 2.01317 18.4084 1.55304 17.0795C1.06026 15.6442 0.813232 14.2543 0.813232 12.9087C0.813232 11.3673 1.1463 10.0379 1.81342 8.92385C2.33772 8.029 3.03522 7.32312 3.9082 6.80493C4.78118 6.28674 5.72443 6.02267 6.74024 6.00578C7.29605 6.00578 8.02493 6.1777 8.93071 6.51559C9.83393 6.85462 10.4139 7.02655 10.6681 7.02655C10.8582 7.02655 11.5025 6.82552 12.5947 6.42473C13.6275 6.05305 14.4992 5.89916 15.2133 5.95978C17.1484 6.11595 18.6022 6.87876 19.569 8.25303C17.8384 9.30163 16.9823 10.7703 16.9993 12.6544C17.015 14.122 17.5474 15.3432 18.5937 16.3129C19.0679 16.7629 19.5974 17.1107 20.1866 17.3578C20.0588 17.7283 19.9239 18.0832 19.7806 18.424ZM15.3425 0.960131C15.3425 2.11039 14.9223 3.18439 14.0847 4.17847C13.0738 5.36023 11.8512 6.04311 10.5253 5.93536C10.5084 5.79736 10.4986 5.65213 10.4986 5.49951C10.4986 4.39526 10.9793 3.21349 11.833 2.24724C12.2592 1.75801 12.8013 1.35122 13.4586 1.02671C14.1145 0.707053 14.7349 0.530273 15.3184 0.5C15.3354 0.653772 15.3425 0.807554 15.3425 0.960116V0.960131Z" fill="white"/>
</svg>
