<svg width="90" height="90" viewBox="0 0 90 90" fill="none" xmlns="http://www.w3.org/2000/svg">
<path d="M45.0005 58.6125C40.0505 58.6125 36.0005 54.5625 36.0005 49.6125V40.3501C36.0005 35.4001 40.0505 31.35 45.0005 31.35C49.9505 31.35 54.0005 35.4001 54.0005 40.3501V49.6125C54.0005 54.6 49.9505 58.6125 45.0005 58.6125ZM45.0005 37.0125C43.163 37.0125 41.6255 38.5126 41.6255 40.3876V49.65C41.6255 51.525 43.1255 53.0251 45.0005 53.0251C46.8755 53.0251 48.3755 51.525 48.3755 49.65V40.3876C48.3755 38.5126 46.838 37.0125 45.0005 37.0125Z" fill="white"/>
<path d="M45 70.575C33.1125 70.575 23.4375 60.9 23.4375 49.0125V40.9874C23.4375 29.0999 33.1125 19.4249 45 19.4249C56.1 19.4249 65.325 27.7501 66.45 38.7751C66.6 40.3126 65.475 41.6999 63.9375 41.8499C62.4 42.0374 61.0125 40.8749 60.8625 39.3374C60.0375 31.1999 53.2125 25.0499 45 25.0499C36.225 25.0499 29.0625 32.2124 29.0625 40.9874V49.0125C29.0625 57.7875 36.225 64.95 45 64.95C53.25 64.95 60.225 58.4999 60.9 50.2874C61.0125 48.7499 62.3625 47.5873 63.9375 47.6998C65.475 47.8123 66.6375 49.1626 66.525 50.7376C65.625 61.8751 56.175 70.575 45 70.575Z" fill="white"/>
<path d="M82.5 36.5625C80.9625 36.5625 79.6875 35.2875 79.6875 33.75V26.25C79.6875 16.575 73.425 10.3125 63.75 10.3125H56.25C54.7125 10.3125 53.4375 9.0375 53.4375 7.5C53.4375 5.9625 54.7125 4.6875 56.25 4.6875H63.75C76.65 4.6875 85.3125 13.35 85.3125 26.25V33.75C85.3125 35.2875 84.0375 36.5625 82.5 36.5625Z" fill="white"/>
<path d="M7.5 36.5625C5.9625 36.5625 4.6875 35.2875 4.6875 33.75V26.25C4.6875 13.35 13.35 4.6875 26.25 4.6875H33.75C35.2875 4.6875 36.5625 5.9625 36.5625 7.5C36.5625 9.0375 35.2875 10.3125 33.75 10.3125H26.25C16.575 10.3125 10.3125 16.575 10.3125 26.25V33.75C10.3125 35.2875 9.0375 36.5625 7.5 36.5625Z" fill="#31C7D5"/>
<path d="M63.75 85.3125H56.25C54.7125 85.3125 53.4375 84.0375 53.4375 82.5C53.4375 80.9625 54.7125 79.6875 56.25 79.6875H63.75C73.425 79.6875 79.6875 73.425 79.6875 63.75V56.25C79.6875 54.7125 80.9625 53.4375 82.5 53.4375C84.0375 53.4375 85.3125 54.7125 85.3125 56.25V63.75C85.3125 76.65 76.65 85.3125 63.75 85.3125Z" fill="#31C7D5"/>
<path d="M33.75 85.3125H26.25C13.35 85.3125 4.6875 76.65 4.6875 63.75V56.25C4.6875 54.7125 5.9625 53.4375 7.5 53.4375C9.0375 53.4375 10.3125 54.7125 10.3125 56.25V63.75C10.3125 73.425 16.575 79.6875 26.25 79.6875H33.75C35.2875 79.6875 36.5625 80.9625 36.5625 82.5C36.5625 84.0375 35.2875 85.3125 33.75 85.3125Z" fill="white"/>
</svg>
