<svg width="137" height="40" viewBox="0 0 137 40" fill="none" xmlns="http://www.w3.org/2000/svg">
<path d="M41.1806 11.9715C41.5619 11.9691 41.9425 12.0046 42.3168 12.0775C42.6381 12.1444 42.9524 12.2414 43.2555 12.3671L42.4439 14.9244C42.2969 14.8456 42.1403 14.7863 41.9781 14.7478C41.7744 14.7016 41.5659 14.6802 41.357 14.6842C41.1698 14.6748 40.9828 14.706 40.8086 14.7754C40.6345 14.8449 40.4774 14.9511 40.3479 15.0868C40.0865 15.4005 39.9552 15.8024 39.9809 16.2101V17.086H42.6416V19.5373H39.9809V27.8025H37.1155V19.5373H35.1959V17.086H37.1155V16.0617C37.105 15.4667 37.2055 14.8749 37.4119 14.3168C37.5947 13.8382 37.8816 13.4063 38.2517 13.0523C38.6229 12.7036 39.0629 12.4365 39.5433 12.2682C40.0669 12.0717 40.6215 11.9712 41.1806 11.9715Z" fill="#2A3890"/>
<path d="M54.0464 25.2453C53.5622 26.1034 52.8768 26.8307 52.0491 27.3646C51.125 27.9243 50.0587 28.204 48.9791 28.1699C48.2036 28.1781 47.4339 28.0341 46.7136 27.746C46.0398 27.4729 45.4279 27.0669 44.914 26.5522C44.402 26.036 43.9967 25.4239 43.7213 24.7508C43.4323 24.0228 43.2885 23.2452 43.2979 22.4619C43.2954 21.7097 43.4367 20.964 43.7142 20.265C43.9802 19.5911 44.3731 18.9747 44.8717 18.4494C45.372 17.9292 45.9689 17.5117 46.629 17.2202C47.3326 16.9065 48.096 16.7498 48.8662 16.7611C49.6514 16.747 50.4314 16.8912 51.1599 17.1849C51.8025 17.4482 52.3786 17.8512 52.8466 18.3647C53.3059 18.8816 53.6542 19.4876 53.8699 20.1449C54.1092 20.8645 54.2284 21.6187 54.2228 22.3772V22.6386C54.2167 22.7185 54.2167 22.7988 54.2228 22.8787C54.212 22.9584 54.212 23.0392 54.2228 23.1189H46.1632C46.2134 23.5145 46.3354 23.8976 46.5232 24.2492C46.7071 24.5526 46.9465 24.8186 47.2289 25.0333C47.4929 25.2425 47.7949 25.3984 48.1182 25.4925C48.4362 25.5888 48.7668 25.6365 49.0991 25.6338C49.6751 25.6556 50.2441 25.5002 50.7294 25.1888C51.1477 24.8921 51.4947 24.506 51.7456 24.0585L54.0464 25.2453ZM51.4281 21.0632C51.4037 20.8437 51.3391 20.6305 51.2375 20.4345C51.1202 20.1872 50.9575 19.9643 50.7576 19.7775C50.5309 19.5618 50.2649 19.3915 49.9742 19.276C49.6148 19.1351 49.2308 19.0679 48.845 19.0782C48.2636 19.0705 47.6959 19.2541 47.2289 19.6009C46.7546 19.9713 46.4109 20.4836 46.2479 21.0632H51.4281Z" fill="#2A3890"/>
<path d="M56.0578 17.086H58.7396V18.5766H58.916C59.0512 18.3147 59.2275 18.0761 59.4383 17.8702C59.6504 17.6546 59.8873 17.4649 60.144 17.305C60.4185 17.138 60.7124 17.0051 61.0191 16.9094C61.3178 16.8126 61.6297 16.7626 61.9437 16.7611C62.2725 16.752 62.6008 16.7925 62.9176 16.8812C63.1675 16.9476 63.4056 17.0524 63.6234 17.192L62.8541 19.7563C62.6713 19.6604 62.4768 19.5892 62.2754 19.5444C62.0204 19.489 61.76 19.4629 61.4991 19.4667C61.1307 19.4617 60.7661 19.5415 60.4334 19.6998C60.1142 19.8505 59.834 20.0729 59.6147 20.3497C59.3808 20.6399 59.2014 20.9702 59.0854 21.3246C58.9612 21.72 58.8993 22.1323 58.9019 22.5467V27.8237H56.0789L56.0578 17.086Z" fill="#2A3890"/>
<path d="M64.9431 17.086H67.6603V18.5766H67.8367C67.9696 18.3132 68.1462 18.0744 68.3589 17.8702C68.5711 17.6546 68.808 17.4649 69.0647 17.305C69.3392 17.138 69.6331 17.0051 69.9398 16.9094C70.2385 16.8126 70.5504 16.7626 70.8644 16.7611C71.1932 16.752 71.5215 16.7925 71.8383 16.8812C72.0884 16.9469 72.3266 17.0518 72.5441 17.192L71.7818 19.7563C71.5986 19.6616 71.4042 19.5904 71.2031 19.5444C70.9481 19.4893 70.6877 19.4633 70.4268 19.4667C70.0562 19.4619 69.6893 19.5416 69.3541 19.6998C69.036 19.8524 68.7563 20.0745 68.5354 20.3497C68.3037 20.6403 68.1267 20.9706 68.0131 21.3246C67.8889 21.72 67.827 22.1323 67.8296 22.5467V27.8237H64.9643L64.9431 17.086Z" fill="#2A3890"/>
<path d="M83.3137 25.2453C82.8316 26.105 82.1456 26.8328 81.3164 27.3646C80.3923 27.9243 79.3259 28.204 78.2464 28.1699C77.4732 28.1774 76.706 28.0334 75.988 27.7461C75.3142 27.4729 74.7022 27.0669 74.1883 26.5522C73.6718 26.0398 73.2659 25.4266 72.9957 24.7508C72.7109 24.0076 72.5765 23.2152 72.6004 22.4196C72.5956 21.6678 72.7345 20.9221 73.0097 20.2226C73.2757 19.5488 73.6686 18.9324 74.1671 18.4071C74.6702 17.8868 75.2694 17.4694 75.9315 17.1779C76.6347 16.8628 77.3984 16.7061 78.1688 16.7187C78.9539 16.7053 79.7338 16.8494 80.4624 17.1426C81.103 17.406 81.6768 17.809 82.1421 18.3223C82.6036 18.8389 82.9543 19.4448 83.1725 20.1025C83.4093 20.8226 83.5261 21.5768 83.5183 22.3348V22.5962C83.5122 22.6762 83.5122 22.7564 83.5183 22.8364C83.511 22.9163 83.511 22.9967 83.5183 23.0766H75.4234C75.4671 23.4736 75.5894 23.8578 75.7833 24.2069C75.9673 24.5103 76.2067 24.7763 76.4891 24.991C76.7506 25.2 77.0502 25.3559 77.3713 25.4502C77.6894 25.546 78.02 25.5936 78.3523 25.5915C78.9283 25.6132 79.4972 25.4579 79.9825 25.1464C80.4042 24.8536 80.7522 24.4667 80.9988 24.0161L83.3137 25.2453ZM80.7165 21.0915C80.6916 20.873 80.6295 20.6604 80.533 20.4628C80.4108 20.2185 80.2487 19.9964 80.0531 19.8058C79.825 19.5885 79.5563 19.4181 79.2626 19.3043C78.9059 19.1627 78.5241 19.0954 78.1405 19.1065C77.559 19.0977 76.9909 19.2815 76.5244 19.6292C76.0475 19.9985 75.7012 20.511 75.5363 21.0915H80.7165Z" fill="#2A3890"/>
<path d="M85.2051 17.086H87.894V18.3788H88.0704C88.366 17.8898 88.7878 17.4896 89.2914 17.2203C89.9205 16.8785 90.6299 16.7126 91.3451 16.7399C92.0197 16.738 92.6866 16.8826 93.3 17.1638C93.9176 17.4459 94.474 17.8468 94.9373 18.3435C95.4235 18.8662 95.8045 19.4778 96.0595 20.1449C96.6144 21.6251 96.6144 23.2565 96.0595 24.7367C95.8063 25.4067 95.4251 26.0209 94.9373 26.5451C94.474 27.0418 93.9176 27.4427 93.3 27.7249C92.6866 28.006 92.0197 28.1506 91.3451 28.1487C90.6299 28.176 89.9205 28.0101 89.2914 27.6683C88.7878 27.399 88.366 26.9988 88.0704 26.5098H87.894L88.0704 28.0427V32.5215H85.2051V17.086ZM90.7522 25.5067C91.1254 25.5063 91.4948 25.4319 91.8391 25.2877C92.1761 25.1413 92.4825 24.9328 92.7425 24.6731C93.0142 24.3969 93.2298 24.0706 93.3776 23.7123C93.6974 22.8973 93.6974 21.9913 93.3776 21.1763C93.2298 20.818 93.0142 20.4917 92.7425 20.2155C92.4825 19.9558 92.1761 19.7473 91.8391 19.6009C91.4958 19.4581 91.1276 19.3846 90.7558 19.3846C90.3839 19.3846 90.0158 19.4581 89.6724 19.6009C89.3333 19.7369 89.0259 19.9413 88.7691 20.2014C88.4974 20.4776 88.2817 20.8038 88.1339 21.1621C87.8141 21.9918 87.8141 22.9109 88.1339 23.7406C88.2817 24.0989 88.4974 24.4251 88.7691 24.7013C89.0259 24.9614 89.3333 25.1658 89.6724 25.3018C90.0155 25.4402 90.3824 25.5098 90.7522 25.5067Z" fill="#31C7D5"/>
<path d="M98.092 27.8026V12.1481H100.957V27.8026H98.092Z" fill="#31C7D5"/>
<path d="M109.892 26.6581H109.716C109.372 27.0718 108.962 27.4252 108.502 27.7036C107.948 28.0183 107.317 28.1702 106.681 28.1416C106.147 28.1445 105.617 28.0537 105.114 27.8732C104.647 27.6992 104.214 27.4433 103.837 27.1173C103.475 26.7965 103.186 26.4013 102.99 25.9587C102.779 25.4904 102.673 24.9817 102.679 24.4682C102.671 23.9614 102.78 23.4596 102.996 23.0015C103.213 22.5434 103.532 22.1412 103.929 21.8261C104.348 21.5005 104.828 21.2605 105.34 21.1197C105.903 20.9487 106.488 20.8653 107.076 20.8725C107.657 20.8582 108.237 20.9127 108.805 21.0349C109.185 21.1195 109.558 21.2328 109.92 21.374V21.0067C109.923 20.7321 109.86 20.4609 109.737 20.2154C109.614 19.9698 109.435 19.7568 109.215 19.5938C108.737 19.2118 108.139 19.0138 107.528 19.0358C107.042 19.0352 106.562 19.1471 106.126 19.3628C105.69 19.5785 105.31 19.8921 105.015 20.2791L102.948 18.8874C103.502 18.192 104.213 17.6376 105.023 17.2693C105.832 16.901 106.717 16.7293 107.605 16.7681C108.971 16.6736 110.324 17.0889 111.402 17.9337C111.86 18.3817 112.214 18.9241 112.441 19.5231C112.668 20.1221 112.761 20.7634 112.715 21.4023V27.8308H109.892V26.6581ZM109.892 23.4439C109.559 23.2836 109.212 23.1558 108.855 23.0624C108.472 22.9629 108.078 22.9154 107.683 22.9211C107.121 22.8841 106.563 23.0412 106.102 23.3662C105.928 23.4921 105.787 23.6579 105.69 23.8496C105.593 24.0412 105.543 24.2533 105.545 24.4682C105.539 24.6745 105.585 24.8789 105.679 25.0628C105.773 25.2466 105.911 25.4041 106.081 25.5208C106.436 25.784 106.867 25.923 107.309 25.9164C108.007 25.9191 108.679 25.6477 109.179 25.1605C109.406 24.9357 109.584 24.6663 109.701 24.3693C109.827 24.0793 109.891 23.7668 109.892 23.4509V23.4439Z" fill="#31C7D5"/>
<path d="M125.03 25.0687C124.572 25.9605 123.897 26.7231 123.068 27.2869C122.138 27.8916 121.043 28.1927 119.935 28.1487C119.155 28.1575 118.38 28.0135 117.655 27.7248C116.981 27.456 116.371 27.0494 115.863 26.531C115.355 26.0142 114.955 25.402 114.684 24.7296C114.385 23.9965 114.234 23.2114 114.24 22.4196C114.232 21.6342 114.376 20.8547 114.663 20.1237C114.928 19.4497 115.328 18.8373 115.84 18.3245C116.351 17.8117 116.961 17.4094 117.634 17.1426C118.359 16.8539 119.134 16.7099 119.914 16.7187C121.017 16.6806 122.107 16.976 123.04 17.5664C123.86 18.1078 124.505 18.876 124.896 19.7775L122.278 20.8725C122.066 20.4178 121.737 20.0276 121.325 19.7422C120.889 19.474 120.383 19.3413 119.871 19.3607C119.505 19.3603 119.142 19.4348 118.806 19.5797C118.463 19.7268 118.155 19.9424 117.898 20.2133C117.642 20.4842 117.444 20.8047 117.317 21.1551C117.025 21.9752 117.025 22.871 117.317 23.6911C117.444 24.0415 117.642 24.362 117.898 24.6329C118.155 24.9039 118.463 25.1195 118.806 25.2665C119.142 25.4114 119.505 25.4859 119.871 25.4855C120.406 25.5028 120.933 25.3628 121.389 25.0828C121.821 24.7899 122.165 24.3844 122.384 23.9101L125.03 25.0687Z" fill="#31C7D5"/>
<path d="M136.823 25.2453C136.338 26.1026 135.653 26.8296 134.826 27.3646C133.902 27.9243 132.836 28.204 131.756 28.1699C130.981 28.1781 130.211 28.0341 129.491 27.746C128.816 27.4755 128.203 27.0692 127.691 26.5522C127.179 26.036 126.774 25.4239 126.498 24.7508C126.209 24.0228 126.066 23.2452 126.075 22.4619C126.072 21.7097 126.214 20.964 126.491 20.265C126.756 19.5925 127.149 18.9782 127.649 18.4565C128.147 17.9319 128.744 17.5117 129.406 17.2202C130.11 16.9065 130.873 16.7498 131.643 16.7611C132.428 16.747 133.208 16.8912 133.937 17.1849C134.58 17.4482 135.156 17.8512 135.624 18.3647C136.081 18.8834 136.429 19.4888 136.647 20.1449C136.886 20.8645 137.005 21.6187 137 22.3772V22.6386C136.991 22.7183 136.991 22.7989 137 22.8787C136.993 22.9586 136.993 23.039 137 23.1189H128.94C128.987 23.5152 129.109 23.8989 129.3 24.2492C129.484 24.5526 129.723 24.8186 130.006 25.0333C130.269 25.2439 130.571 25.4 130.895 25.4925C131.213 25.5893 131.544 25.6369 131.876 25.6338C132.45 25.6573 133.017 25.5018 133.499 25.1888C133.923 24.8978 134.271 24.5104 134.516 24.0585L136.823 25.2453ZM134.219 21.0844C134.198 20.8652 134.136 20.652 134.036 20.4557C133.918 20.2084 133.756 19.9855 133.556 19.7987C133.329 19.583 133.063 19.4127 132.772 19.2971C132.413 19.1563 132.029 19.0891 131.643 19.0993C131.062 19.0917 130.494 19.2753 130.027 19.6221C129.553 19.9925 129.209 20.5048 129.046 21.0844H134.219Z" fill="#31C7D5"/>
<path d="M25.2812 7.4016C25.1626 7.17353 25.044 6.93555 24.9057 6.71739C23.2747 3.95291 20.6568 1.91449 17.5831 1.01564C16.4749 0.675649 15.3227 0.501892 14.1639 0.5C10.8626 0.528583 7.70507 1.85923 5.37342 4.20448C3.04178 6.54972 1.72327 9.72127 1.70263 13.0339V14.5015C1.70263 14.8982 1.70263 15.3047 1.70263 15.7014C2.85582 14.9195 4.158 14.3861 5.52699 14.1346C4.19811 14.9067 2.92063 15.7646 1.70263 16.7029C1.18175 17.0983 0.719272 17.5657 0.329011 18.0912C0.329011 18.0912 -0.84694 19.7967 1.70263 18.8349H1.76186L1.82121 20.3322C2.93121 19.6298 4.1717 19.1609 5.46763 18.9539C4.13876 19.7259 2.86128 20.5838 1.64328 21.5221C1.1224 21.9175 0.659922 22.3849 0.269661 22.9104C0.269661 22.9104 -0.906281 24.6259 1.65317 23.6541L1.71252 25.1514V25.2803H1.77175C2.88175 24.578 4.12236 24.109 5.4183 23.902C4.13733 24.6545 2.906 25.4892 1.73219 26.4008C1.20219 26.8 0.732917 27.2743 0.338903 27.8089C0.338903 27.8089 -0.412182 28.9889 1.77175 28.0965L1.8311 30.0202C2.9411 29.3179 4.18159 28.8489 5.47753 28.6419C5.47753 28.6419 1.2974 31.0416 0.279552 32.6083C0.279552 32.6083 0.220332 33.5999 1.71252 32.9058L2.40422 34.1949C3.36422 33.6895 4.40389 33.354 5.47753 33.2033C5.47753 33.2033 -1.7462 37.6358 3.44188 36.4359L4.88463 39.5L7.14766 34.0759C7.14766 34.0759 9.83548 32.3604 8.284 32.1819L7.75045 32.3009L7.95793 29.2368C8.67932 28.7311 10.3889 27.4123 8.06662 27.7494L8.21488 25.5679H8.62008H10.3198C11.6044 25.5679 12.8594 25.5679 14.1045 25.5679V18.6266C12.8792 18.7059 11.6341 18.6762 10.3198 18.6266H8.52116C8.52116 16.455 8.42234 14.6007 8.52116 12.7563C8.60517 11.359 9.23824 10.0523 10.2813 9.12278C11.3243 8.19327 12.6921 7.71692 14.0848 7.79825H14.1639C15.0585 7.81846 15.9332 8.0666 16.7059 8.51933C17.4787 8.97207 18.1239 9.61454 18.5812 10.3863L18.6898 10.5946C19.0952 11.2856 19.7156 11.8239 20.4555 12.1267C21.1954 12.4294 22.014 12.4799 22.7854 12.2704C23.5567 12.0608 24.238 11.6028 24.7246 10.9668C25.2113 10.3308 25.4763 9.55203 25.4788 8.75019C25.4996 8.29211 25.4326 7.83428 25.2812 7.4016Z" fill="#2A3890"/>
<path d="M25.2811 7.40158C25.4646 7.84123 25.5587 8.31322 25.5579 8.78984C25.5553 9.59168 25.2903 10.3705 24.8037 11.0065C24.317 11.6425 23.6356 12.1005 22.8643 12.31C22.093 12.5196 21.2744 12.4691 20.5345 12.1663C19.7945 11.8635 19.1741 11.3253 18.7688 10.6342C19.1299 11.3207 19.3326 12.0798 19.3618 12.8554C19.427 13.5519 19.3542 14.2544 19.1478 14.9225C18.9414 15.5907 18.6054 16.2112 18.159 16.7486C17.7126 17.2859 17.1647 17.7293 16.5469 18.0533C15.9291 18.3773 15.2536 18.5755 14.5591 18.6365H14.1638C13.2465 18.6365 12.3668 19.0022 11.7182 19.653C11.0695 20.3039 10.7051 21.1867 10.7051 22.1071C10.7051 23.0276 11.0695 23.9104 11.7182 24.5613C12.3668 25.2121 13.2465 25.5778 14.1638 25.5778H14.48C20.5871 25.3398 25.7654 20.7883 26.5065 15.0866C26.874 12.4596 26.4472 9.78236 25.2811 7.40158Z" fill="#31C7D5"/>
</svg>
