<svg width="85" height="85" viewBox="0 0 85 85" fill="none" xmlns="http://www.w3.org/2000/svg">
<path d="M46.041 52.2396H42.4993C41.0472 52.2396 39.843 51.0354 39.843 49.5833C39.843 48.1312 41.0472 46.9271 42.4993 46.9271H46.041C48.4847 46.9271 50.468 44.9437 50.468 42.5V9.73958H21.2493C17.0701 9.73958 13.245 12.0062 11.1909 15.6541C10.4825 16.9291 8.85351 17.3897 7.57851 16.6813C6.30351 15.973 5.84296 14.3438 6.55129 13.0688C9.52629 7.75625 15.1576 4.42708 21.2493 4.42708H53.1243C54.5764 4.42708 55.7805 5.63124 55.7805 7.08333V42.5C55.7805 47.8833 51.4243 52.2396 46.041 52.2396Z" fill="white"/>
<path d="M67.2918 73.4896H63.7502C62.2981 73.4896 61.0939 72.2854 61.0939 70.8333C61.0939 68.3896 59.1106 66.4062 56.6668 66.4062C54.2231 66.4062 52.2397 68.3896 52.2397 70.8333C52.2397 72.2854 51.0356 73.4896 49.5835 73.4896H35.4168C33.9647 73.4896 32.7606 72.2854 32.7606 70.8333C32.7606 68.3896 30.7772 66.4062 28.3335 66.4062C25.8897 66.4062 23.9064 68.3896 23.9064 70.8333C23.9064 72.2854 22.7022 73.4896 21.2502 73.4896H17.7085C10.3772 73.4896 4.42725 67.5396 4.42725 60.2083C4.42725 58.7562 5.63141 57.5521 7.0835 57.5521C8.53558 57.5521 9.73975 58.7562 9.73975 60.2083C9.73975 64.6 13.3168 68.1771 17.7085 68.1771H18.948C20.1167 64.1042 23.871 61.0938 28.3335 61.0938C32.796 61.0938 36.5502 64.1042 37.719 68.1771H47.3168C48.4855 64.1042 52.2398 61.0938 56.7023 61.0938C61.1648 61.0938 64.9188 64.1042 66.0876 68.1771H67.2918C71.6835 68.1771 75.2606 64.6 75.2606 60.2083V52.2396H67.2918C63.8918 52.2396 61.0939 49.4417 61.0939 46.0417V35.4167C61.0939 32.0167 63.8564 29.2187 67.2918 29.2187L63.5022 22.5958C62.723 21.2146 61.2357 20.3646 59.6419 20.3646H55.7814V42.5C55.7814 47.8833 51.4252 52.2396 46.0418 52.2396H42.5002C41.0481 52.2396 39.8439 51.0354 39.8439 49.5833C39.8439 48.1312 41.0481 46.9271 42.5002 46.9271H46.0418C48.4856 46.9271 50.4689 44.9437 50.4689 42.5V17.7083C50.4689 16.2562 51.6731 15.0521 53.1252 15.0521H59.6419C63.1482 15.0521 66.3709 16.9292 68.1063 19.975L74.1627 30.5646C74.6231 31.3792 74.6231 32.4063 74.1627 33.2208C73.7023 34.0354 72.8167 34.5312 71.8605 34.5312H67.2918C66.796 34.5312 66.4064 34.9208 66.4064 35.4167V46.0417C66.4064 46.5375 66.796 46.9271 67.2918 46.9271H77.9168C79.3689 46.9271 80.5731 48.1312 80.5731 49.5833V60.2083C80.5731 67.5396 74.6231 73.4896 67.2918 73.4896Z" fill="white"/>
<path d="M28.3333 80.5729C22.95 80.5729 18.5938 76.2167 18.5938 70.8333C18.5938 65.45 22.95 61.0938 28.3333 61.0938C33.7167 61.0938 38.0729 65.45 38.0729 70.8333C38.0729 76.2167 33.7167 80.5729 28.3333 80.5729ZM28.3333 66.4062C25.8896 66.4062 23.9063 68.3896 23.9063 70.8333C23.9063 73.2771 25.8896 75.2604 28.3333 75.2604C30.7771 75.2604 32.7604 73.2771 32.7604 70.8333C32.7604 68.3896 30.7771 66.4062 28.3333 66.4062Z" fill="#31C7D5"/>
<path d="M56.6668 80.5729C51.2835 80.5729 46.9272 76.2167 46.9272 70.8333C46.9272 65.45 51.2835 61.0938 56.6668 61.0938C62.0502 61.0938 66.4064 65.45 66.4064 70.8333C66.4064 76.2167 62.0502 80.5729 56.6668 80.5729ZM56.6668 66.4062C54.2231 66.4062 52.2397 68.3896 52.2397 70.8333C52.2397 73.2771 54.2231 75.2604 56.6668 75.2604C59.1106 75.2604 61.0939 73.2771 61.0939 70.8333C61.0939 68.3896 59.1106 66.4062 56.6668 66.4062Z" fill="#31C7D5"/>
<path d="M77.9167 52.2396H67.2917C63.8917 52.2396 61.0938 49.4417 61.0938 46.0417V35.4167C61.0938 32.0167 63.8917 29.2188 67.2917 29.2188H71.8603C72.8166 29.2188 73.7021 29.7146 74.1625 30.5646L80.2188 41.1896C80.4313 41.5792 80.5729 42.0396 80.5729 42.5V49.5833C80.5729 51.0354 79.3687 52.2396 77.9167 52.2396ZM67.2917 34.5312C66.7958 34.5312 66.4062 34.9208 66.4062 35.4167V46.0417C66.4062 46.5375 66.7958 46.9271 67.2917 46.9271H75.2604V43.2084L70.302 34.5312H67.2917Z" fill="#31C7D5"/>
<path d="M28.3335 30.9896H7.0835C5.63141 30.9896 4.42725 29.7854 4.42725 28.3333C4.42725 26.8812 5.63141 25.6771 7.0835 25.6771H28.3335C29.7856 25.6771 30.9897 26.8812 30.9897 28.3333C30.9897 29.7854 29.7856 30.9896 28.3335 30.9896Z" fill="#31C7D5"/>
<path d="M21.2502 41.6146H7.0835C5.63141 41.6146 4.42725 40.4104 4.42725 38.9583C4.42725 37.5062 5.63141 36.3021 7.0835 36.3021H21.2502C22.7022 36.3021 23.9064 37.5062 23.9064 38.9583C23.9064 40.4104 22.7022 41.6146 21.2502 41.6146Z" fill="#31C7D5"/>
<path d="M14.1668 52.2396H7.0835C5.63141 52.2396 4.42725 51.0354 4.42725 49.5833C4.42725 48.1312 5.63141 46.9271 7.0835 46.9271H14.1668C15.6189 46.9271 16.8231 48.1312 16.8231 49.5833C16.8231 51.0354 15.6189 52.2396 14.1668 52.2396Z" fill="#31C7D5"/>
</svg>
