<svg width="85" height="85" viewBox="0 0 85 85" fill="none" xmlns="http://www.w3.org/2000/svg">
<path d="M46.0418 52.2396H7.0835C5.63141 52.2396 4.42725 51.0354 4.42725 49.5833V26.9875C4.42725 25.8542 5.13554 24.8624 6.16263 24.4728C7.22513 24.0832 8.39394 24.4021 9.10227 25.2521C11.2627 27.8375 14.6273 29.2896 17.9564 29.1833C20.7898 29.1125 23.4105 28.0501 25.3939 26.173C26.3147 25.3938 27.0585 24.4729 27.6251 23.4458C28.723 21.5687 29.2543 19.5145 29.2189 17.4249C29.1481 14.1666 27.7315 11.1916 25.3232 9.03121C24.4732 8.28746 24.1898 7.11865 24.5793 6.09157C24.9689 5.06448 25.9606 4.35619 27.0585 4.35619H53.1252C54.5772 4.35619 55.7814 5.56035 55.7814 7.01244V42.4291C55.7814 47.8833 51.4252 52.2396 46.0418 52.2396ZM9.73975 46.9271H46.0418C48.4856 46.9271 50.4689 44.9438 50.4689 42.5V9.73959H32.5481C33.7877 12.0417 34.4606 14.6271 34.5314 17.3188C34.6022 20.4001 33.823 23.4458 32.2647 26.1021C31.4147 27.625 30.246 29.0771 28.971 30.1396C26.1376 32.8313 22.2418 34.425 18.098 34.5313C15.1584 34.6375 12.2544 33.8938 9.7752 32.5479V46.9271H9.73975Z" fill="white"/>
<path d="M67.2918 73.4896H63.7502C62.2981 73.4896 61.0939 72.2854 61.0939 70.8333C61.0939 68.3896 59.1106 66.4062 56.6668 66.4062C54.2231 66.4062 52.2397 68.3896 52.2397 70.8333C52.2397 72.2854 51.0356 73.4896 49.5835 73.4896H35.4168C33.9647 73.4896 32.7606 72.2854 32.7606 70.8333C32.7606 68.3896 30.7772 66.4062 28.3335 66.4062C25.8897 66.4062 23.9064 68.3896 23.9064 70.8333C23.9064 72.2854 22.7022 73.4896 21.2502 73.4896H17.7085C10.3772 73.4896 4.42725 67.5396 4.42725 60.2083V49.5833C4.42725 48.1312 5.63141 46.9271 7.0835 46.9271H46.0418C48.4856 46.9271 50.4689 44.9437 50.4689 42.5V17.7083C50.4689 16.2562 51.6731 15.0521 53.1252 15.0521H59.6419C63.1482 15.0521 66.3709 16.9292 68.1063 19.975L74.1627 30.5646C74.6231 31.3792 74.6231 32.4063 74.1627 33.2208C73.7023 34.0354 72.8167 34.5312 71.8605 34.5312H67.2918C66.796 34.5312 66.4064 34.9208 66.4064 35.4167V46.0417C66.4064 46.5375 66.796 46.9271 67.2918 46.9271H77.9168C79.3689 46.9271 80.5731 48.1312 80.5731 49.5833V60.2083C80.5731 67.5396 74.6231 73.4896 67.2918 73.4896ZM66.0523 68.1771H67.2918C71.6835 68.1771 75.2606 64.6 75.2606 60.2083V52.2396H67.2918C63.8918 52.2396 61.0939 49.4417 61.0939 46.0417V35.4167C61.0939 32.0167 63.8564 29.2187 67.2918 29.2187L63.5022 22.5958C62.723 21.2146 61.2357 20.3646 59.6419 20.3646H55.7814V42.5C55.7814 47.8833 51.4252 52.2396 46.0418 52.2396H9.73975V60.2083C9.73975 64.6 13.3168 68.1771 17.7085 68.1771H18.948C20.1167 64.1042 23.871 61.0938 28.3335 61.0938C32.796 61.0938 36.5502 64.1042 37.719 68.1771H47.3168C48.4855 64.1042 52.2398 61.0938 56.7023 61.0938C61.1648 61.0938 64.8836 64.1042 66.0523 68.1771Z" fill="white"/>
<path d="M28.3333 80.5729C22.95 80.5729 18.5938 76.2167 18.5938 70.8333C18.5938 65.45 22.95 61.0938 28.3333 61.0938C33.7167 61.0938 38.0729 65.45 38.0729 70.8333C38.0729 76.2167 33.7167 80.5729 28.3333 80.5729ZM28.3333 66.4062C25.8896 66.4062 23.9063 68.3896 23.9063 70.8333C23.9063 73.2771 25.8896 75.2604 28.3333 75.2604C30.7771 75.2604 32.7604 73.2771 32.7604 70.8333C32.7604 68.3896 30.7771 66.4062 28.3333 66.4062Z" fill="#31C7D5"/>
<path d="M56.6668 80.5729C51.2835 80.5729 46.9272 76.2167 46.9272 70.8333C46.9272 65.45 51.2835 61.0938 56.6668 61.0938C62.0502 61.0938 66.4064 65.45 66.4064 70.8333C66.4064 76.2167 62.0502 80.5729 56.6668 80.5729ZM56.6668 66.4062C54.2231 66.4062 52.2397 68.3896 52.2397 70.8333C52.2397 73.2771 54.2231 75.2604 56.6668 75.2604C59.1106 75.2604 61.0939 73.2771 61.0939 70.8333C61.0939 68.3896 59.1106 66.4062 56.6668 66.4062Z" fill="#31C7D5"/>
<path d="M77.9167 52.2396H67.2917C63.8917 52.2396 61.0938 49.4417 61.0938 46.0417V35.4167C61.0938 32.0167 63.8917 29.2188 67.2917 29.2188H71.8603C72.8166 29.2188 73.7021 29.7146 74.1625 30.5646L80.2188 41.1896C80.4313 41.5792 80.5729 42.0396 80.5729 42.5V49.5833C80.5729 51.0354 79.3687 52.2396 77.9167 52.2396ZM67.2917 34.5312C66.7958 34.5312 66.4062 34.9208 66.4062 35.4167V46.0417C66.4062 46.5375 66.7958 46.9271 67.2917 46.9271H75.2604V43.2084L70.302 34.5312H67.2917Z" fill="#31C7D5"/>
<path d="M17.7082 34.5313C8.429 34.5313 0.885254 26.9875 0.885254 17.7083C0.885254 12.5375 3.18744 7.75618 7.18952 4.56868C10.1645 2.19576 13.9186 0.885422 17.7082 0.885422C26.9873 0.885422 34.5311 8.42917 34.5311 17.7083C34.5311 22.525 32.4415 27.1292 28.7936 30.3167C25.7124 33.0437 21.7811 34.5313 17.7082 34.5313ZM17.7082 6.19792C15.0873 6.19792 12.6081 7.08323 10.5185 8.74782C7.7914 10.9082 6.19775 14.2021 6.19775 17.7083C6.19775 24.0479 11.3686 29.2188 17.7082 29.2188C20.4707 29.2188 23.1624 28.1917 25.3228 26.35C27.802 24.1542 29.2186 21.0375 29.2186 17.7083C29.2186 11.3688 24.0478 6.19792 17.7082 6.19792Z" fill="#31C7D5"/>
<path d="M14.1665 23.9062C13.281 23.9062 12.3956 23.4459 11.8997 22.6313C11.156 21.3563 11.5456 19.727 12.8206 18.9833L15.9727 17.1063V13.2812C15.9727 11.8292 17.1769 10.625 18.629 10.625C20.0811 10.625 21.2852 11.8292 21.2852 13.2812V18.5938C21.2852 19.5146 20.7895 20.4001 20.0103 20.8605L15.5832 23.5167C15.0874 23.8001 14.6269 23.9062 14.1665 23.9062Z" fill="#31C7D5"/>
</svg>
