<svg width="85" height="85" viewBox="0 0 85 85" fill="none" xmlns="http://www.w3.org/2000/svg">
<path d="M77.9168 34.5312C76.4647 34.5312 75.2606 33.3271 75.2606 31.875V24.7917C75.2606 15.6542 69.346 9.73958 60.2085 9.73958H24.7918C15.6543 9.73958 9.73975 15.6542 9.73975 24.7917V31.875C9.73975 33.3271 8.53558 34.5312 7.0835 34.5312C5.63141 34.5312 4.42725 33.3271 4.42725 31.875V24.7917C4.42725 12.6083 12.6085 4.42708 24.7918 4.42708H60.2085C72.3918 4.42708 80.5731 12.6083 80.5731 24.7917V31.875C80.5731 33.3271 79.3689 34.5312 77.9168 34.5312Z" fill="white"/>
<path d="M60.2085 80.5729H24.7918C12.6085 80.5729 4.42725 72.3917 4.42725 60.2083V53.125C4.42725 51.6729 5.63141 50.4688 7.0835 50.4688C8.53558 50.4688 9.73975 51.6729 9.73975 53.125V60.2083C9.73975 69.3458 15.6543 75.2604 24.7918 75.2604H60.2085C69.346 75.2604 75.2606 69.3458 75.2606 60.2083V53.125C75.2606 51.6729 76.4647 50.4688 77.9168 50.4688C79.3689 50.4688 80.5731 51.6729 80.5731 53.125V60.2083C80.5731 72.3917 72.3918 80.5729 60.2085 80.5729Z" fill="white"/>
<path d="M42.5004 46.3248C42.04 46.3248 41.5795 46.2185 41.1545 45.9705L22.3838 35.133C21.1088 34.3893 20.6837 32.7602 21.4275 31.4852C22.1712 30.2102 23.8004 29.7852 25.04 30.5289L42.465 40.6226L59.7837 30.5998C61.0587 29.8561 62.6879 30.3163 63.3962 31.5559C64.14 32.8309 63.6796 34.4602 62.44 35.2039L43.8108 45.9705C43.4212 46.183 42.9608 46.3248 42.5004 46.3248Z" fill="#31C7D5"/>
<path d="M42.5 65.5915C41.0479 65.5915 39.8438 64.3874 39.8438 62.9353V43.6686C39.8438 42.2165 41.0479 41.0123 42.5 41.0123C43.9521 41.0123 45.1562 42.2165 45.1562 43.6686V62.9353C45.1562 64.3874 43.9521 65.5915 42.5 65.5915Z" fill="#31C7D5"/>
<path d="M42.5006 66.4064C40.4464 66.4064 38.4276 65.946 36.7985 65.0606L25.4652 58.7565C22.0652 56.8795 19.4443 52.3814 19.4443 48.4856V36.4793C19.4443 32.6189 22.1006 28.1211 25.4652 26.2086L36.7985 19.9043C40.0568 18.0981 44.9443 18.0981 48.2026 19.9043L59.536 26.2086C62.936 28.0857 65.5568 32.5835 65.5568 36.4793V48.4856C65.5568 52.346 62.9006 56.844 59.536 58.7565L48.2026 65.0606C46.5735 65.946 44.5547 66.4064 42.5006 66.4064ZM39.3839 24.5794L28.0506 30.8834C26.3151 31.8397 24.7568 34.5314 24.7568 36.4793V48.4856C24.7568 50.4689 26.3151 53.1253 28.0506 54.0815L39.3839 60.3856C41.013 61.271 43.9881 61.271 45.6172 60.3856L56.9506 54.0815C58.686 53.1253 60.2443 50.4335 60.2443 48.4856V36.4793C60.2443 34.496 58.686 31.8397 56.9506 30.8834L45.6172 24.5794C43.9881 23.6939 41.013 23.6939 39.3839 24.5794Z" fill="#31C7D5"/>
</svg>
