<svg width="85" height="85" viewBox="0 0 85 85" fill="none" xmlns="http://www.w3.org/2000/svg">
<path d="M67.2919 80.5726C61.5544 80.5726 56.1356 77.5977 53.0898 72.7102C51.4606 70.1957 50.5399 67.185 50.469 64.1038C50.3628 58.933 52.5586 54.1163 56.4899 50.858C59.4295 48.4142 63.1128 47.0331 66.9024 46.9268C71.5066 46.8914 75.6503 48.4852 78.9086 51.6018C82.1669 54.7185 84.0086 58.8977 84.0794 63.3956C84.1502 66.4769 83.3711 69.4872 81.8128 72.1435C80.9628 73.631 79.8648 75.0123 78.5544 76.181C75.6502 78.9081 71.7544 80.5018 67.6107 80.5726C67.5398 80.5726 67.4336 80.5726 67.2919 80.5726ZM67.2919 52.2393C67.2211 52.2393 67.1148 52.2393 67.044 52.2393C64.4232 52.3101 61.944 53.231 59.8899 54.931C57.1982 57.1623 55.7107 60.456 55.7815 63.9977C55.8169 66.0872 56.4544 68.1413 57.5524 69.8767C59.7128 73.3476 63.4669 75.4726 67.5044 75.2601C70.3023 75.1893 72.9586 74.1269 74.9774 72.2498C75.8982 71.4352 76.6419 70.5143 77.2086 69.5227C78.2711 67.681 78.8023 65.6268 78.7669 63.5372C78.6961 60.456 77.4565 57.5871 75.2252 55.4621C73.1002 53.3725 70.2669 52.2393 67.2919 52.2393Z" fill="white"/>
<path d="M65.3433 69.9477C64.6704 69.9477 64.0328 69.6997 63.5015 69.2038L59.9245 65.804C58.862 64.7769 58.8265 63.1123 59.8536 62.0498C60.8807 60.9873 62.5453 60.9518 63.6078 61.9789L65.3433 63.6434L70.9036 58.2602C71.9661 57.2331 73.6307 57.2684 74.6578 58.3309C75.6849 59.3934 75.6495 61.0582 74.587 62.0853L67.1849 69.2393C66.6537 69.6997 65.9808 69.9477 65.3433 69.9477Z" fill="white"/>
<path d="M42.4996 47.1037C42.0392 47.1037 41.5787 46.9975 41.1537 46.7496L9.88087 28.6517C8.60587 27.908 8.1808 26.2787 8.92455 25.0037C9.6683 23.7287 11.2975 23.3036 12.5371 24.0474L42.4641 41.3662L72.2142 24.1538C73.4892 23.41 75.1184 23.8705 75.8267 25.1101C76.5704 26.3851 76.1101 28.0141 74.8705 28.7579L43.81 46.7496C43.4204 46.9621 42.96 47.1037 42.4996 47.1037Z" fill="#31C7D5"/>
<path d="M42.5 79.191C41.0479 79.191 39.8438 77.9868 39.8438 76.5347V44.4118C39.8438 42.9597 41.0479 41.7555 42.5 41.7555C43.9521 41.7555 45.1562 42.9597 45.1562 44.4118V76.5347C45.1562 77.9868 43.9521 79.191 42.5 79.191Z" fill="#31C7D5"/>
<path d="M42.4995 80.5726C39.3829 80.5726 36.2662 79.8997 33.8579 78.5184L14.9454 68.0352C9.80995 65.2019 5.77246 58.3664 5.77246 52.4873V32.4413C5.77246 26.5621 9.80995 19.7623 14.9454 16.8935L33.8579 6.41013C38.6745 3.68305 46.2537 3.68305 51.1058 6.41013L70.0182 16.8935C75.1537 19.7269 79.1911 26.5621 79.1911 32.4413V52.4873C79.1911 52.8414 79.1912 53.1246 79.1204 53.4788C78.9433 54.3996 78.2704 55.1788 77.385 55.4621C76.4996 55.7809 75.5078 55.5685 74.7641 54.9665C70.6911 51.4248 64.387 51.2831 60.1016 54.7185C57.3745 56.8789 55.7808 60.1726 55.7808 63.6788C55.7808 65.7684 56.3475 67.8227 57.4454 69.5936C57.7287 70.0894 58.012 70.4789 58.3308 70.8685C58.862 71.4706 59.0746 72.2852 58.9329 73.0643C58.7913 73.8435 58.2954 74.5165 57.5871 74.9061L51.1058 78.483C48.6974 79.8996 45.6162 80.5726 42.4995 80.5726ZM42.4995 9.73931C40.3037 9.73931 38.0724 10.1997 36.4787 11.0852L17.5662 21.5686C14.1307 23.4457 11.1558 28.5455 11.1558 32.4413V52.4873C11.1558 56.3831 14.1662 61.4831 17.5662 63.3602L36.4787 73.8434C39.7016 75.6496 45.3328 75.6496 48.5558 73.8434L52.5224 71.6476C51.212 69.2747 50.5037 66.5122 50.5037 63.6788C50.5037 58.508 52.8058 53.7269 56.8079 50.5394C61.6246 46.679 68.4953 45.8642 73.9141 48.1663V32.3706C73.9141 28.4748 70.9037 23.3748 67.5037 21.4977L48.5912 11.0143C46.9266 10.1997 44.6954 9.73931 42.4995 9.73931Z" fill="#31C7D5"/>
</svg>
