<svg width="85" height="85" viewBox="0 0 85 85" fill="none" xmlns="http://www.w3.org/2000/svg">
<path d="M42.4997 69.9479C33.2205 69.9479 25.6768 62.4042 25.6768 53.125C25.6768 43.8458 33.2205 36.3021 42.4997 36.3021C51.7788 36.3021 59.3226 43.8458 59.3226 53.125C59.3226 62.4042 51.7788 69.9479 42.4997 69.9479ZM42.4997 41.6146C36.1601 41.6146 30.9893 46.7854 30.9893 53.125C30.9893 59.4646 36.1601 64.6354 42.4997 64.6354C48.8393 64.6354 54.0101 59.4646 54.0101 53.125C54.0101 46.7854 48.8393 41.6146 42.4997 41.6146Z" fill="white"/>
<path d="M40.5162 58.5792C39.3829 58.5792 38.2495 58.1542 37.3995 57.2688L35.0975 54.9667C34.0704 53.9396 34.0704 52.2396 35.0975 51.2125C36.1245 50.1854 37.8245 50.1854 38.8516 51.2125L40.5516 52.9125L46.2537 47.6708C47.3162 46.6792 49.0162 46.75 50.0079 47.8125C50.9995 48.875 50.9287 50.575 49.8662 51.5667L43.562 57.375C42.6766 58.1896 41.5787 58.5792 40.5162 58.5792Z" fill="white"/>
<path d="M53.1248 80.5729H31.8748C15.5123 80.5729 12.4665 72.9583 11.6873 65.5562L9.03109 44.3417C8.64151 40.5167 8.49984 35.0271 12.2186 30.9187C15.4061 27.3771 20.6832 25.6771 28.3332 25.6771H56.6665C64.3519 25.6771 69.629 27.4125 72.7811 30.9187C76.4644 35.0271 76.3582 40.5167 75.9686 44.2708L73.3123 65.5562C72.5332 72.9583 69.4873 80.5729 53.1248 80.5729ZM28.3332 30.9896C22.3478 30.9896 18.2394 32.1583 16.1498 34.4958C14.4144 36.4083 13.8478 39.3479 14.3082 43.7396L16.9644 64.9542C17.5665 70.6208 19.1248 75.2958 31.8748 75.2958H53.1248C65.8748 75.2958 67.4332 70.6562 68.0353 65.025L70.6915 43.7396C71.1519 39.4187 70.5853 36.4792 68.8498 34.5312C66.7603 32.1583 62.6519 30.9896 56.6665 30.9896H28.3332Z" fill="#31C7D5"/>
<path d="M58.4375 30.5646C56.9854 30.5646 55.7812 29.3604 55.7812 27.9083V23.0208C55.7812 19.3021 54.1875 15.6896 51.425 13.175C48.6271 10.625 44.9792 9.45625 41.1896 9.81041C34.8146 10.4125 29.2188 16.9292 29.2188 23.7292V27.1646C29.2188 28.6167 28.0146 29.8208 26.5625 29.8208C25.1104 29.8208 23.9062 28.6167 23.9062 27.1646V23.6937C23.9062 14.1667 31.5917 5.38333 40.6938 4.49791C46.0063 4.00208 51.1062 5.66666 55.0021 9.24375C58.8625 12.75 61.0938 17.7792 61.0938 23.0208V27.9083C61.0938 29.3604 59.8896 30.5646 58.4375 30.5646Z" fill="#31C7D5"/>
</svg>
