<svg width="85" height="85" viewBox="0 0 85 85" fill="none" xmlns="http://www.w3.org/2000/svg">
<path d="M46.0413 52.2396H7.08301C5.63092 52.2396 4.42676 51.0354 4.42676 49.5833V26.9875C4.42676 25.8542 5.13506 24.8624 6.16214 24.4728C7.22464 24.0832 8.39345 24.4021 9.10178 25.2521C11.2268 27.7667 14.308 29.1833 17.6726 29.1833C17.7788 29.1833 17.8497 29.1833 17.956 29.1833C20.7893 29.1125 23.41 28.0501 25.3934 26.173C26.3142 25.3938 27.058 24.4729 27.6246 23.4458C28.7225 21.5687 29.2538 19.5145 29.2184 17.4249C29.1476 14.1666 27.731 11.1916 25.3227 9.03121C24.4727 8.28746 24.1893 7.11865 24.5788 6.09157C24.9684 5.06448 25.9601 4.35619 27.0581 4.35619H53.1247C54.5768 4.35619 55.7809 5.56035 55.7809 7.01244V42.4291C55.7809 47.8833 51.4247 52.2396 46.0413 52.2396ZM9.73926 46.9271H46.0413C48.4851 46.9271 50.4684 44.9438 50.4684 42.5V9.73959H32.5476C33.7872 12.0417 34.4601 14.6271 34.5309 17.3188C34.6018 20.4001 33.8225 23.4458 32.2642 26.1021C31.4142 27.625 30.2455 29.0771 28.9705 30.1396C26.1371 32.8313 22.2413 34.425 18.0975 34.5313C15.158 34.6375 12.2539 33.8938 9.77471 32.5479V46.9271H9.73926Z" fill="white"/>
<path d="M67.2913 73.4896H63.7497C62.2976 73.4896 61.0934 72.2854 61.0934 70.8333C61.0934 68.3896 59.1101 66.4062 56.6663 66.4062C54.2226 66.4062 52.2393 68.3896 52.2393 70.8333C52.2393 72.2854 51.0351 73.4896 49.583 73.4896H35.4163C33.9643 73.4896 32.7601 72.2854 32.7601 70.8333C32.7601 68.3896 30.7768 66.4062 28.333 66.4062C25.8893 66.4062 23.9059 68.3896 23.9059 70.8333C23.9059 72.2854 22.7018 73.4896 21.2497 73.4896H17.708C10.3768 73.4896 4.42676 67.5396 4.42676 60.2083V49.5833C4.42676 48.1312 5.63092 46.9271 7.08301 46.9271H46.0413C48.4851 46.9271 50.4684 44.9437 50.4684 42.5V17.7083C50.4684 16.2562 51.6726 15.0521 53.1247 15.0521H59.6414C63.1477 15.0521 66.3704 16.9292 68.1059 19.975L74.1622 30.5646C74.6226 31.3792 74.6226 32.4063 74.1622 33.2208C73.7018 34.0354 72.8163 34.5312 71.86 34.5312H67.2913C66.7955 34.5312 66.4059 34.9208 66.4059 35.4167V46.0417C66.4059 46.5375 66.7955 46.9271 67.2913 46.9271H77.9163C79.3684 46.9271 80.5726 48.1312 80.5726 49.5833V60.2083C80.5726 67.5396 74.6226 73.4896 67.2913 73.4896ZM66.0518 68.1771H67.2913C71.683 68.1771 75.2601 64.6 75.2601 60.2083V52.2396H67.2913C63.8913 52.2396 61.0934 49.4417 61.0934 46.0417V35.4167C61.0934 32.0167 63.8559 29.2187 67.2913 29.2187L63.5017 22.5958C62.7226 21.2146 61.2352 20.3646 59.6414 20.3646H55.7809V42.5C55.7809 47.8833 51.4247 52.2396 46.0413 52.2396H9.73926V60.2083C9.73926 64.6 13.3163 68.1771 17.708 68.1771H18.9475C20.1163 64.1042 23.8705 61.0938 28.333 61.0938C32.7955 61.0938 36.5498 64.1042 37.7185 68.1771H47.3163C48.485 64.1042 52.2393 61.0938 56.7018 61.0938C61.1643 61.0938 64.8831 64.1042 66.0518 68.1771Z" fill="white"/>
<path d="M28.3333 80.5729C22.95 80.5729 18.5938 76.2167 18.5938 70.8333C18.5938 65.45 22.95 61.0938 28.3333 61.0938C33.7167 61.0938 38.0729 65.45 38.0729 70.8333C38.0729 76.2167 33.7167 80.5729 28.3333 80.5729ZM28.3333 66.4062C25.8896 66.4062 23.9063 68.3896 23.9063 70.8333C23.9063 73.2771 25.8896 75.2604 28.3333 75.2604C30.7771 75.2604 32.7604 73.2771 32.7604 70.8333C32.7604 68.3896 30.7771 66.4062 28.3333 66.4062Z" fill="#31C7D5"/>
<path d="M56.6663 80.5729C51.283 80.5729 46.9268 76.2167 46.9268 70.8333C46.9268 65.45 51.283 61.0938 56.6663 61.0938C62.0497 61.0938 66.4059 65.45 66.4059 70.8333C66.4059 76.2167 62.0497 80.5729 56.6663 80.5729ZM56.6663 66.4062C54.2226 66.4062 52.2393 68.3896 52.2393 70.8333C52.2393 73.2771 54.2226 75.2604 56.6663 75.2604C59.1101 75.2604 61.0934 73.2771 61.0934 70.8333C61.0934 68.3896 59.1101 66.4062 56.6663 66.4062Z" fill="#31C7D5"/>
<path d="M77.9167 52.2396H67.2917C63.8917 52.2396 61.0938 49.4417 61.0938 46.0417V35.4167C61.0938 32.0167 63.8917 29.2188 67.2917 29.2188H71.8603C72.8166 29.2188 73.7021 29.7146 74.1625 30.5646L80.2188 41.1896C80.4313 41.5792 80.5729 42.0396 80.5729 42.5V49.5833C80.5729 51.0354 79.3687 52.2396 77.9167 52.2396ZM67.2917 34.5312C66.7958 34.5312 66.4062 34.9208 66.4062 35.4167V46.0417C66.4062 46.5375 66.7958 46.9271 67.2917 46.9271H75.2604V43.2084L70.302 34.5312H67.2917Z" fill="#31C7D5"/>
<path d="M17.7087 34.5313C11.8295 34.5313 6.3045 31.4146 3.3295 26.35C1.73575 23.8 0.885742 20.7896 0.885742 17.7083C0.885742 12.5375 3.18793 7.75618 7.19001 4.56868C10.165 2.19576 13.9191 0.885422 17.7087 0.885422C26.9878 0.885422 34.5316 8.42917 34.5316 17.7083C34.5316 20.7896 33.6816 23.8 32.0878 26.3855C31.2024 27.873 30.069 29.2188 28.7232 30.3521C25.7836 33.0438 21.8524 34.5313 17.7087 34.5313ZM17.7087 6.19792C15.0878 6.19792 12.6086 7.08323 10.519 8.74782C7.79189 10.9082 6.19824 14.2021 6.19824 17.7083C6.19824 19.7979 6.7648 21.852 7.86272 23.6229C9.91689 27.0937 13.7066 29.2188 17.7087 29.2188C20.5066 29.2188 23.1983 28.1917 25.2524 26.35C26.1733 25.5708 26.9525 24.65 27.5191 23.6583C28.6525 21.8521 29.2191 19.7979 29.2191 17.7083C29.2191 11.3688 24.0482 6.19792 17.7087 6.19792Z" fill="#31C7D5"/>
<path d="M21.4973 24.0477C20.8244 24.0477 20.1514 23.7999 19.6201 23.2687L12.1473 15.7958C11.1202 14.7687 11.1202 13.0687 12.1473 12.0416C13.1743 11.0146 14.8743 11.0146 15.9014 12.0416L23.3743 19.5145C24.4014 20.5416 24.4014 22.2416 23.3743 23.2687C22.843 23.7999 22.1702 24.0477 21.4973 24.0477Z" fill="#31C7D5"/>
<path d="M13.9188 24.1539C13.2459 24.1539 12.573 23.9058 12.0418 23.3746C11.0147 22.3475 11.0147 20.6475 12.0418 19.6204L19.5147 12.1476C20.5417 11.1205 22.2417 11.1205 23.2688 12.1476C24.2959 13.1747 24.2959 14.8746 23.2688 15.9017L15.796 23.3746C15.2647 23.9058 14.5917 24.1539 13.9188 24.1539Z" fill="#31C7D5"/>
</svg>
