<svg width="85" height="85" viewBox="0 0 85 85" fill="none" xmlns="http://www.w3.org/2000/svg">
<path d="M42.4996 47.1041C42.0392 47.1041 41.5787 46.9979 41.1537 46.75L9.88087 28.6522C8.60587 27.9084 8.1808 26.2791 8.92455 25.0041C9.6683 23.7291 11.262 23.3041 12.5725 24.0478L42.4996 41.3666L72.2496 24.1542C73.5246 23.4104 75.1537 23.8709 75.8975 25.1105C76.6412 26.3855 76.1809 28.0146 74.9413 28.7583L43.8809 46.75C43.4205 46.9625 42.96 47.1041 42.4996 47.1041Z" fill="white"/>
<path d="M42.5 79.1918C41.0479 79.1918 39.8438 77.9877 39.8438 76.5356V44.4126C39.8438 42.9606 41.0479 41.7564 42.5 41.7564C43.9521 41.7564 45.1562 42.9606 45.1562 44.4126V76.5356C45.1562 77.9877 43.9521 79.1918 42.5 79.1918Z" fill="white"/>
<path d="M42.5002 80.5729C39.3835 80.5729 36.3023 79.8999 33.8585 78.5541L14.946 68.0355C9.81063 65.2021 5.80859 58.3667 5.80859 52.4875V32.477C5.80859 26.5978 9.81063 19.798 14.946 16.9292L33.8585 6.44583C38.7106 3.75416 46.2898 3.75416 51.1419 6.44583L70.0544 16.9645C75.1898 19.7978 79.1918 26.6333 79.1918 32.5124V52.5229C79.1918 58.4021 75.1898 65.2019 70.0544 68.0707L51.1419 78.5541C48.6981 79.8999 45.6169 80.5729 42.5002 80.5729ZM42.5002 9.73955C40.269 9.73955 38.0732 10.2 36.444 11.0854L17.5315 21.604C14.1315 23.5165 11.1211 28.5812 11.1211 32.5124V52.5229C11.1211 56.4188 14.1315 61.5186 17.5315 63.4311L36.444 73.95C39.6669 75.7562 45.3335 75.7562 48.5564 73.95L67.4689 63.4311C70.8689 61.5186 73.8793 56.4542 73.8793 52.5229V32.5124C73.8793 28.6166 70.8689 23.5165 67.4689 21.604L48.5564 11.0854C46.9273 10.2 44.7315 9.73955 42.5002 9.73955Z" fill="#31C7D5"/>
<path d="M60.2092 49.5481C58.7571 49.5481 57.5529 48.3439 57.5529 46.8918V35.4878L25.2529 16.8586C23.9779 16.1148 23.5529 14.4856 24.2966 13.246C25.0404 11.971 26.6342 11.5459 27.9092 12.2897L61.5196 31.6982C62.3342 32.1586 62.8654 33.0439 62.8654 34.0001V46.9627C62.8654 48.344 61.6613 49.5481 60.2092 49.5481Z" fill="#31C7D5"/>
</svg>
