<svg width="45" height="45" viewBox="0 0 45 45" fill="none" xmlns="http://www.w3.org/2000/svg">
<path d="M29.2312 40.6124C28.8749 40.6124 28.5187 40.4812 28.2374 40.1999C27.6937 39.6562 27.6937 38.7562 28.2374 38.2124L33.5249 32.9249C34.0686 32.3812 34.9687 32.3812 35.5124 32.9249C36.0562 33.4687 36.0562 34.3687 35.5124 34.9124L30.2249 40.1999C29.9437 40.4812 29.5874 40.6124 29.2312 40.6124Z" fill="#2A3890"/>
<path d="M34.5187 40.6124C34.1624 40.6124 33.8061 40.4812 33.5249 40.1999L28.2374 34.9124C27.6937 34.3687 27.6937 33.4687 28.2374 32.9249C28.7812 32.3812 29.6812 32.3812 30.2249 32.9249L35.5124 38.2124C36.0562 38.7562 36.0562 39.6562 35.5124 40.1999C35.2312 40.4812 34.8749 40.6124 34.5187 40.6124Z" fill="#2A3890"/>
<path d="M22.7998 21.7875C22.7436 21.7875 22.7061 21.7875 22.6498 21.7875C22.5561 21.7687 22.4248 21.7687 22.3123 21.7875C16.8748 21.6187 12.7686 17.3438 12.7686 12.075C12.7686 6.7125 17.1373 2.34375 22.4998 2.34375C27.8623 2.34375 32.2311 6.7125 32.2311 12.075C32.2123 17.3438 28.0873 21.6187 22.8561 21.7875C22.8373 21.7875 22.8186 21.7875 22.7998 21.7875ZM22.4998 5.15625C18.6936 5.15625 15.5811 8.26875 15.5811 12.075C15.5811 15.825 18.5061 18.8438 22.2373 18.975C22.3498 18.9562 22.5936 18.9562 22.8373 18.975C26.5123 18.8062 29.3998 15.7875 29.4186 12.075C29.4186 8.26875 26.3061 5.15625 22.4998 5.15625Z" fill="#31C7D5"/>
<path d="M22.4999 42.2999C18.6749 42.2999 15.0561 41.3061 12.3186 39.4686C9.71235 37.7249 8.28735 35.3436 8.28735 32.7749C8.28735 30.2062 9.7311 27.8437 12.3186 26.1187C17.9249 22.3687 27.0374 22.3687 32.6436 26.1187C33.2811 26.5499 33.4686 27.4312 33.0374 28.0687C32.6061 28.7249 31.7249 28.8937 31.0874 28.4624C26.4186 25.3499 18.5436 25.3499 13.8749 28.4624C12.0749 29.6624 11.0999 31.1812 11.0999 32.7749C11.0999 34.3687 12.0936 35.9249 13.8749 37.1249C16.1436 38.6436 19.1999 39.4686 22.4811 39.4686C23.2499 39.4686 23.8874 40.1061 23.8874 40.8749C23.8874 41.6437 23.2686 42.2999 22.4999 42.2999Z" fill="#31C7D5"/>
</svg>
