<svg width="29" height="29" viewBox="0 0 29 29" fill="none" xmlns="http://www.w3.org/2000/svg">
<path d="M15.029 16.1739C15.0056 16.1739 14.9706 16.1739 14.9473 16.1739C14.9123 16.1739 14.8656 16.1739 14.8306 16.1739C12.1823 16.0922 10.199 14.0272 10.199 11.4839C10.199 8.89389 12.3106 6.78223 14.9006 6.78223C17.4906 6.78223 19.6023 8.89389 19.6023 11.4839C19.5906 14.0389 17.5956 16.0922 15.064 16.1739C15.0406 16.1739 15.0406 16.1739 15.029 16.1739ZM14.889 8.52056C13.2556 8.52056 11.9373 9.85056 11.9373 11.4722C11.9373 13.0706 13.1856 14.3656 14.7723 14.4239C14.8073 14.4122 14.924 14.4122 15.0406 14.4239C16.604 14.3422 17.829 13.0589 17.8406 11.4722C17.8406 9.85056 16.5223 8.52056 14.889 8.52056Z" fill="#31C7D5"/>
<path d="M14.8889 26.9307C11.7506 26.9307 8.75226 25.764 6.43059 23.6407C6.22059 23.454 6.12726 23.174 6.15059 22.9057C6.30226 21.5174 7.16559 20.2224 8.60059 19.2657C12.0773 16.9557 17.7123 16.9557 21.1773 19.2657C22.6123 20.234 23.4756 21.5174 23.6273 22.9057C23.6623 23.1857 23.5573 23.454 23.3473 23.6407C21.0256 25.764 18.0273 26.9307 14.8889 26.9307ZM7.98226 22.6724C9.91893 24.294 12.3573 25.1807 14.8889 25.1807C17.4206 25.1807 19.8589 24.294 21.7956 22.6724C21.5856 21.9607 21.0256 21.2724 20.1973 20.7124C17.3273 18.799 12.4623 18.799 9.56893 20.7124C8.74059 21.2724 8.19226 21.9607 7.98226 22.6724Z" fill="#31C7D5"/>
<path d="M14.889 26.9305C7.97062 26.9305 2.34729 21.3072 2.34729 14.3888C2.34729 7.4705 7.97062 1.84717 14.889 1.84717C21.8073 1.84717 27.4306 7.4705 27.4306 14.3888C27.4306 21.3072 21.8073 26.9305 14.889 26.9305ZM14.889 3.59717C8.93896 3.59717 4.09729 8.43883 4.09729 14.3888C4.09729 20.3388 8.93896 25.1805 14.889 25.1805C20.839 25.1805 25.6806 20.3388 25.6806 14.3888C25.6806 8.43883 20.839 3.59717 14.889 3.59717Z" fill="#31C7D5"/>
</svg>
