<svg width="24" height="24" viewBox="0 0 24 24" fill="none" xmlns="http://www.w3.org/2000/svg">
<path d="M15.5899 21.6598C15.3999 21.6598 15.2099 21.5898 15.0599 21.4398C14.7699 21.1498 14.7699 20.6698 15.0599 20.3798L17.8799 17.5598C18.1699 17.2698 18.6499 17.2698 18.9399 17.5598C19.2299 17.8498 19.2299 18.3298 18.9399 18.6198L16.1199 21.4398C15.9699 21.5898 15.7799 21.6598 15.5899 21.6598Z" fill="#2A3890"/>
<path d="M18.4099 21.6598C18.2199 21.6598 18.0299 21.5898 17.8799 21.4398L15.0599 18.6198C14.7699 18.3298 14.7699 17.8498 15.0599 17.5598C15.3499 17.2698 15.8299 17.2698 16.1199 17.5598L18.9399 20.3798C19.2299 20.6698 19.2299 21.1498 18.9399 21.4398C18.7899 21.5898 18.5999 21.6598 18.4099 21.6598Z" fill="#2A3890"/>
<path d="M12.1599 11.62C12.1299 11.62 12.1099 11.62 12.0799 11.62C12.0299 11.61 11.9599 11.61 11.8999 11.62C8.99994 11.53 6.80994 9.25 6.80994 6.44C6.80994 3.58 9.13994 1.25 11.9999 1.25C14.8599 1.25 17.1899 3.58 17.1899 6.44C17.1799 9.25 14.9799 11.53 12.1899 11.62C12.1799 11.62 12.1699 11.62 12.1599 11.62ZM11.9999 2.75C9.96994 2.75 8.30994 4.41 8.30994 6.44C8.30994 8.44 9.86994 10.05 11.8599 10.12C11.9199 10.11 12.0499 10.11 12.1799 10.12C14.1399 10.03 15.6799 8.42 15.6899 6.44C15.6899 4.41 14.0299 2.75 11.9999 2.75Z" fill="#2A3890"/>
<path d="M11.9999 22.5602C9.95992 22.5602 8.02992 22.0302 6.56992 21.0502C5.17992 20.1202 4.41992 18.8502 4.41992 17.4802C4.41992 16.1102 5.18992 14.8502 6.56992 13.9302C9.55992 11.9302 14.4199 11.9302 17.4099 13.9302C17.7499 14.1602 17.8499 14.6302 17.6199 14.9702C17.3899 15.3202 16.9199 15.4102 16.5799 15.1802C14.0899 13.5202 9.88992 13.5202 7.39992 15.1802C6.43992 15.8202 5.91992 16.6302 5.91992 17.4802C5.91992 18.3302 6.44992 19.1602 7.39992 19.8002C8.60992 20.6102 10.2399 21.0502 11.9899 21.0502C12.3999 21.0502 12.7399 21.3902 12.7399 21.8002C12.7399 22.2102 12.4099 22.5602 11.9999 22.5602Z" fill="#2A3890"/>
</svg>
