<svg width="45" height="45" viewBox="0 0 45 45" fill="none" xmlns="http://www.w3.org/2000/svg">
<path d="M22.5 42.6562C21.0188 42.6562 19.6125 41.9062 18.6375 40.575L16.7438 38.0438C16.35 37.5188 15.825 37.2187 15.2625 37.1812C14.7 37.1437 14.1375 37.4063 13.6875 37.875L12.6188 36.9375L13.65 37.8937C10.9313 40.7812 8.86875 40.5563 7.875 40.1625C6.8625 39.7688 5.15625 38.475 5.15625 34.3125V13.2C5.15625 4.875 7.55625 2.34375 15.4125 2.34375H29.5688C37.425 2.34375 39.825 4.875 39.825 13.2V34.3125C39.825 38.4562 38.1188 39.75 37.1063 40.1625C36.1125 40.5563 34.05 40.7812 31.3312 37.8937C30.8812 37.4062 30.3 37.1625 29.7375 37.2C29.175 37.2375 28.6313 37.5375 28.2375 38.0625L26.3438 40.5937C25.3875 41.9062 23.9813 42.6562 22.5 42.6562ZM15.15 34.3687C15.225 34.3687 15.3188 34.3687 15.3938 34.3687C16.7813 34.4437 18.0938 35.175 18.975 36.3562L20.8875 38.8875C21.8063 40.1062 23.2125 40.1062 24.1313 38.8875L26.025 36.3562C26.9063 35.175 28.2188 34.4437 29.625 34.3687C31.0313 34.2937 32.4 34.875 33.4125 35.9625C34.8375 37.4813 35.7563 37.6688 36.0938 37.5375C36.5438 37.35 37.0313 36.2625 37.0313 34.3125V13.2C37.0313 6.43125 35.85 5.15625 29.5875 5.15625H15.4125C9.15 5.15625 7.96875 6.43125 7.96875 13.2V34.3125C7.96875 36.2812 8.45625 37.3688 8.90625 37.5375C9.24375 37.6688 10.1625 37.4813 11.5875 35.9625C12.5625 34.9313 13.8375 34.3687 15.15 34.3687Z" fill="#4F4F4F"/>
<path d="M28.125 26.25C27.075 26.25 26.25 25.4062 26.25 24.375C26.25 23.3438 27.0938 22.5 28.125 22.5C29.1562 22.5 30 23.3438 30 24.375C30 25.4062 29.175 26.25 28.125 26.25Z" fill="#31C7D5"/>
<path d="M16.875 16.875C15.825 16.875 15 16.0312 15 15C15 13.9688 15.8438 13.125 16.875 13.125C17.9062 13.125 18.75 13.9688 18.75 15C18.75 16.0312 17.925 16.875 16.875 16.875Z" fill="#31C7D5"/>
<path d="M16.1813 27.2812C15.8251 27.2812 15.4688 27.15 15.1876 26.8687C14.6438 26.325 14.6438 25.425 15.1876 24.8812L27.8063 12.2625C28.3501 11.7187 29.2501 11.7187 29.7938 12.2625C30.3376 12.8062 30.3376 13.7062 29.7938 14.25L17.1751 26.8687C16.9126 27.15 16.5563 27.2812 16.1813 27.2812Z" fill="#31C7D5"/>
</svg>
