<svg width="32" height="32" viewBox="0 0 32 32" fill="none" xmlns="http://www.w3.org/2000/svg">
<circle cx="16" cy="16" r="16" fill="#31C7D5"/>
<path d="M22 17.25H10C9.59 17.25 9.25 16.91 9.25 16.5C9.25 16.09 9.59 15.75 10 15.75H22C22.41 15.75 22.75 16.09 22.75 16.5C22.75 16.91 22.41 17.25 22 17.25Z" fill="white"/>
<path d="M16 23.25C15.59 23.25 15.25 22.91 15.25 22.5V10.5C15.25 10.09 15.59 9.75 16 9.75C16.41 9.75 16.75 10.09 16.75 10.5V22.5C16.75 22.91 16.41 23.25 16 23.25Z" fill="white"/>
</svg>
