<svg width="16" height="16" viewBox="0 0 16 16" fill="none" xmlns="http://www.w3.org/2000/svg">
<path d="M8.66671 9.83333H1.33337C1.06004 9.83333 0.833374 9.60666 0.833374 9.33333V3.99999C0.833374 2.25333 2.25337 0.833328 4.00004 0.833328H10C10.2734 0.833328 10.5 1.05999 10.5 1.33333V8C10.5 9.01333 9.68004 9.83333 8.66671 9.83333ZM1.83337 8.83333H8.66671C9.12671 8.83333 9.50004 8.46 9.50004 8V1.83333H4.00004C2.80671 1.83333 1.83337 2.80666 1.83337 3.99999V8.83333Z" fill="#2A3890"/>
<path d="M12.6667 13.8333H12C11.7267 13.8333 11.5 13.6067 11.5 13.3333C11.5 12.8733 11.1267 12.5 10.6667 12.5C10.2067 12.5 9.83337 12.8733 9.83337 13.3333C9.83337 13.6067 9.60671 13.8333 9.33337 13.8333H6.66671C6.39337 13.8333 6.16671 13.6067 6.16671 13.3333C6.16671 12.8733 5.79337 12.5 5.33337 12.5C4.87337 12.5 4.50004 12.8733 4.50004 13.3333C4.50004 13.6067 4.27337 13.8333 4.00004 13.8333H3.33337C1.95337 13.8333 0.833374 12.7133 0.833374 11.3333V9.33333C0.833374 9.06 1.06004 8.83333 1.33337 8.83333H8.66671C9.12671 8.83333 9.50004 8.46 9.50004 8V3.33333C9.50004 3.05999 9.72671 2.83333 10 2.83333H11.2267C11.8867 2.83333 12.4934 3.18667 12.82 3.76L13.96 5.75333C14.0467 5.90666 14.0467 6.1 13.96 6.25333C13.8734 6.40666 13.7067 6.49999 13.5267 6.49999H12.6667C12.5734 6.49999 12.5 6.57333 12.5 6.66666V8.66666C12.5 8.75999 12.5734 8.83333 12.6667 8.83333H14.6667C14.94 8.83333 15.1667 9.06 15.1667 9.33333V11.3333C15.1667 12.7133 14.0467 13.8333 12.6667 13.8333ZM12.4334 12.8333H12.6667C13.4934 12.8333 14.1667 12.16 14.1667 11.3333V9.83333H12.6667C12.0267 9.83333 11.5 9.30666 11.5 8.66666V6.66666C11.5 6.02666 12.02 5.49999 12.6667 5.49999L11.9534 4.25333C11.8067 3.99333 11.5267 3.83333 11.2267 3.83333H10.5V8C10.5 9.01333 9.68004 9.83333 8.66671 9.83333H1.83337V11.3333C1.83337 12.16 2.50671 12.8333 3.33337 12.8333H3.56671C3.78671 12.0667 4.49337 11.5 5.33337 11.5C6.17337 11.5 6.88004 12.0667 7.10004 12.8333H8.9067C9.1267 12.0667 9.83338 11.5 10.6734 11.5C11.5134 11.5 12.2134 12.0667 12.4334 12.8333Z" fill="#2A3890"/>
<path d="M5.33333 15.1667C4.32 15.1667 3.5 14.3467 3.5 13.3333C3.5 12.32 4.32 11.5 5.33333 11.5C6.34667 11.5 7.16667 12.32 7.16667 13.3333C7.16667 14.3467 6.34667 15.1667 5.33333 15.1667ZM5.33333 12.5C4.87333 12.5 4.5 12.8733 4.5 13.3333C4.5 13.7933 4.87333 14.1667 5.33333 14.1667C5.79333 14.1667 6.16667 13.7933 6.16667 13.3333C6.16667 12.8733 5.79333 12.5 5.33333 12.5Z" fill="#2A3890"/>
<path d="M10.6667 15.1667C9.65337 15.1667 8.83337 14.3467 8.83337 13.3333C8.83337 12.32 9.65337 11.5 10.6667 11.5C11.68 11.5 12.5 12.32 12.5 13.3333C12.5 14.3467 11.68 15.1667 10.6667 15.1667ZM10.6667 12.5C10.2067 12.5 9.83337 12.8733 9.83337 13.3333C9.83337 13.7933 10.2067 14.1667 10.6667 14.1667C11.1267 14.1667 11.5 13.7933 11.5 13.3333C11.5 12.8733 11.1267 12.5 10.6667 12.5Z" fill="#2A3890"/>
<path d="M14.6667 9.83333H12.6667C12.0267 9.83333 11.5 9.30667 11.5 8.66667V6.66667C11.5 6.02667 12.0267 5.5 12.6667 5.5H13.5267C13.7067 5.5 13.8733 5.59334 13.96 5.75334L15.1 7.75334C15.14 7.82667 15.1667 7.91333 15.1667 8V9.33333C15.1667 9.60667 14.94 9.83333 14.6667 9.83333ZM12.6667 6.5C12.5733 6.5 12.5 6.57333 12.5 6.66667V8.66667C12.5 8.76 12.5733 8.83333 12.6667 8.83333H14.1667V8.13334L13.2333 6.5H12.6667Z" fill="#2A3890"/>
</svg>
