<svg width="45" height="45" viewBox="0 0 45 45" fill="none" xmlns="http://www.w3.org/2000/svg">
<path d="M22.5 42.6563C21.1875 42.6563 19.8562 42.1501 18.8625 41.1563L15.6562 37.9875C14.8687 37.2001 13.7813 36.7688 12.675 36.7688H11.25C7.36875 36.7688 4.21875 33.6376 4.21875 29.7938V9.33749C4.21875 5.49374 7.36875 2.36255 11.25 2.36255H33.75C37.6312 2.36255 40.7812 5.49374 40.7812 9.33749V29.7938C40.7812 33.6376 37.6312 36.7688 33.75 36.7688H32.325C31.2187 36.7688 30.1313 37.2188 29.3438 37.9875L26.1375 41.1563C25.1438 42.1501 23.8125 42.6563 22.5 42.6563ZM11.25 5.15628C8.925 5.15628 7.03125 7.03123 7.03125 9.31873V29.775C7.03125 32.0813 8.925 33.9375 11.25 33.9375H12.675C14.5313 33.9375 16.3312 34.6875 17.6437 35.9813L20.85 39.15C21.7687 40.05 23.25 40.05 24.1688 39.15L27.375 35.9813C28.6875 34.6875 30.4875 33.9375 32.3438 33.9375H33.75C36.075 33.9375 37.9688 32.0625 37.9688 29.775V9.31873C37.9688 7.01248 36.075 5.15628 33.75 5.15628H11.25Z" fill="#4F4F4F"/>
<path d="M22.4999 20.1564C19.3124 20.1564 16.7249 17.5689 16.7249 14.3814C16.7249 11.1939 19.3124 8.60645 22.4999 8.60645C25.6874 8.60645 28.2749 11.1939 28.2749 14.3814C28.2749 17.5689 25.6874 20.1564 22.4999 20.1564ZM22.4999 11.4189C20.8686 11.4189 19.5374 12.7501 19.5374 14.3814C19.5374 16.0126 20.8686 17.3439 22.4999 17.3439C24.1311 17.3439 25.4624 16.0126 25.4624 14.3814C25.4624 12.7501 24.1311 11.4189 22.4999 11.4189Z" fill="#31C7D5"/>
<path d="M30 30.7689C29.2312 30.7689 28.5938 30.1314 28.5938 29.3626C28.5938 26.7751 25.8562 24.6565 22.5 24.6565C19.1438 24.6565 16.4062 26.7751 16.4062 29.3626C16.4062 30.1314 15.7687 30.7689 15 30.7689C14.2312 30.7689 13.5938 30.1314 13.5938 29.3626C13.5938 25.2189 17.5875 21.844 22.5 21.844C27.4125 21.844 31.4062 25.2189 31.4062 29.3626C31.4062 30.1314 30.7687 30.7689 30 30.7689Z" fill="#31C7D5"/>
</svg>
