<svg width="45" height="45" viewBox="0 0 45 45" fill="none" xmlns="http://www.w3.org/2000/svg">
<path d="M22.5 23.9062C16.5562 23.9062 11.7188 19.0688 11.7188 13.125C11.7188 7.18125 16.5562 2.34375 22.5 2.34375C28.4438 2.34375 33.2812 7.18125 33.2812 13.125C33.2812 19.0688 28.4438 23.9062 22.5 23.9062ZM22.5 5.15625C18.1125 5.15625 14.5312 8.7375 14.5312 13.125C14.5312 17.5125 18.1125 21.0938 22.5 21.0938C26.8875 21.0938 30.4688 17.5125 30.4688 13.125C30.4688 8.7375 26.8875 5.15625 22.5 5.15625Z" fill="#4F4F4F"/>
<path d="M6.39404 42.6562C5.62529 42.6562 4.98779 42.0188 4.98779 41.25C4.98779 33.2438 12.844 26.7188 22.5003 26.7188C24.394 26.7188 26.2503 26.9625 28.0503 27.4688C28.8003 27.675 29.2316 28.4438 29.0253 29.1938C28.8191 29.9438 28.0503 30.3751 27.3003 30.1688C25.7628 29.7376 24.1503 29.5312 22.5003 29.5312C14.4003 29.5312 7.80029 34.7812 7.80029 41.25C7.80029 42.0188 7.16279 42.6562 6.39404 42.6562Z" fill="#4F4F4F"/>
<path d="M33.75 42.6562C30.6375 42.6562 27.7125 41.0063 26.1375 38.325C25.2938 36.975 24.8438 35.3813 24.8438 33.75C24.8438 31.0125 26.0625 28.4812 28.1812 26.7937C29.7562 25.5375 31.7438 24.8438 33.75 24.8438C38.6625 24.8438 42.6562 28.8375 42.6562 33.75C42.6562 35.3813 42.2062 36.975 41.3625 38.3438C40.8937 39.1313 40.2937 39.8438 39.5812 40.4438C38.025 41.8688 35.9438 42.6562 33.75 42.6562ZM33.75 27.6562C32.3625 27.6562 31.05 28.1249 29.9438 29.0062C28.5 30.1499 27.6562 31.8938 27.6562 33.75C27.6562 34.8562 27.9563 35.9437 28.5375 36.8812C29.625 38.7187 31.6312 39.8438 33.75 39.8438C35.2312 39.8438 36.6563 39.3 37.7438 38.325C38.2313 37.9125 38.6437 37.425 38.9437 36.9C39.5437 35.9437 39.8438 34.8562 39.8438 33.75C39.8438 30.3938 37.1062 27.6562 33.75 27.6562Z" fill="#4F4F4F"/>
<path d="M32.681 37.0127C32.3248 37.0127 31.9685 36.8815 31.6873 36.6002L29.831 34.744C29.2873 34.2002 29.2873 33.3001 29.831 32.7564C30.3748 32.2126 31.2748 32.2126 31.8185 32.7564L32.7185 33.6565L35.7185 30.8814C36.281 30.3564 37.181 30.394 37.706 30.9565C38.231 31.519 38.1935 32.4189 37.631 32.9439L33.6373 36.6376C33.356 36.8814 33.0185 37.0127 32.681 37.0127Z" fill="#31C7D5"/>
</svg>
