<svg width="45" height="45" viewBox="0 0 45 45" fill="none" xmlns="http://www.w3.org/2000/svg">
<path d="M22.5 23.9062C16.5562 23.9062 11.7188 19.0688 11.7188 13.125C11.7188 7.18125 16.5562 2.34375 22.5 2.34375C28.4438 2.34375 33.2812 7.18125 33.2812 13.125C33.2812 19.0688 28.4438 23.9062 22.5 23.9062ZM22.5 5.15625C18.1125 5.15625 14.5312 8.7375 14.5312 13.125C14.5312 17.5125 18.1125 21.0938 22.5 21.0938C26.8875 21.0938 30.4688 17.5125 30.4688 13.125C30.4688 8.7375 26.8875 5.15625 22.5 5.15625Z" fill="#4F4F4F"/>
<path d="M29.6627 42.6562C28.9502 42.6562 28.2752 42.3937 27.7877 41.9062C27.2064 41.3249 26.9439 40.4812 27.0752 39.5999L27.4314 37.0687C27.5252 36.4125 27.9189 35.6437 28.3877 35.1562L35.0251 28.5187C37.6876 25.8562 40.0314 27.375 41.1752 28.5187C42.1502 29.4937 42.6564 30.5437 42.6564 31.5937C42.6564 32.6624 42.1689 33.6562 41.1752 34.6499L34.5376 41.2875C34.0689 41.7562 33.2815 42.15 32.6252 42.2438L30.0939 42.5999C29.9439 42.6374 29.8127 42.6562 29.6627 42.6562ZM38.0814 29.8499C37.7439 29.8499 37.4439 30.075 37.0126 30.5062L30.3752 37.1437C30.3189 37.1999 30.2251 37.3874 30.2251 37.4624L29.8877 39.8062L32.2314 39.4687C32.3064 39.4499 32.4939 39.3562 32.5501 39.3L39.1877 32.6624C39.4877 32.3624 39.8439 31.9312 39.8439 31.5937C39.8439 31.3124 39.619 30.9187 39.1877 30.5062C38.7377 30.0562 38.4002 29.8499 38.0814 29.8499Z" fill="#31C7D5"/>
<path d="M39.2251 36.0374C39.0939 36.0374 38.9626 36.0187 38.8501 35.9812C36.3751 35.2875 34.4064 33.3187 33.7126 30.8437C33.5064 30.0937 33.9377 29.325 34.6877 29.1188C35.4377 28.9125 36.2064 29.3437 36.4126 30.0937C36.8439 31.6312 38.0626 32.8499 39.6001 33.2812C40.3501 33.4874 40.7814 34.2749 40.5752 35.0062C40.4064 35.6249 39.8439 36.0374 39.2251 36.0374Z" fill="#31C7D5"/>
<path d="M6.39404 42.6562C5.62529 42.6562 4.98779 42.0188 4.98779 41.25C4.98779 33.2438 12.8441 26.7188 22.5003 26.7188C24.5441 26.7188 26.5691 27.0188 28.4628 27.5813C29.2128 27.8063 29.6253 28.5938 29.4003 29.325C29.1753 30.075 28.3878 30.4875 27.6566 30.2625C26.0066 29.775 24.2816 29.5125 22.5003 29.5125C14.4003 29.5125 7.80029 34.7625 7.80029 41.2312C7.80029 42.0187 7.16279 42.6562 6.39404 42.6562Z" fill="#31C7D5"/>
</svg>
