<svg width="90" height="90" viewBox="0 0 90 90" fill="none" xmlns="http://www.w3.org/2000/svg">
<path d="M45 47.8125C33.1125 47.8125 23.4375 38.1375 23.4375 26.25C23.4375 14.3625 33.1125 4.6875 45 4.6875C56.8875 4.6875 66.5625 14.3625 66.5625 26.25C66.5625 38.1375 56.8875 47.8125 45 47.8125ZM45 10.3125C36.225 10.3125 29.0625 17.475 29.0625 26.25C29.0625 35.025 36.225 42.1875 45 42.1875C53.775 42.1875 60.9375 35.025 60.9375 26.25C60.9375 17.475 53.775 10.3125 45 10.3125Z" fill="white"/>
<path d="M12.7881 85.3125C11.2506 85.3125 9.97559 84.0375 9.97559 82.5C9.97559 66.4875 25.6881 53.4375 45.0006 53.4375C48.7881 53.4375 52.5005 53.9251 56.1005 54.9376C57.6005 55.3501 58.4631 56.8875 58.0506 58.3875C57.6381 59.8875 56.1006 60.7501 54.6006 60.3376C51.5256 59.4751 48.3006 59.0625 45.0006 59.0625C28.8006 59.0625 15.6006 69.5625 15.6006 82.5C15.6006 84.0375 14.3256 85.3125 12.7881 85.3125Z" fill="white"/>
<path d="M67.5 85.3125C61.275 85.3125 55.425 82.0125 52.275 76.65C50.5875 73.95 49.6875 70.7625 49.6875 67.5C49.6875 62.025 52.125 56.9624 56.3625 53.5874C59.5125 51.0749 63.4875 49.6875 67.5 49.6875C77.325 49.6875 85.3125 57.675 85.3125 67.5C85.3125 70.7625 84.4125 73.95 82.725 76.6875C81.7875 78.2625 80.5874 79.6875 79.1624 80.8875C76.0499 83.7375 71.8875 85.3125 67.5 85.3125ZM67.5 55.3125C64.725 55.3125 62.1 56.2499 59.8875 58.0124C57 60.2999 55.3125 63.7875 55.3125 67.5C55.3125 69.7125 55.9125 71.8874 57.075 73.7624C59.25 77.4374 63.2625 79.6875 67.5 79.6875C70.4625 79.6875 73.3125 78.6 75.4875 76.65C76.4625 75.825 77.2875 74.85 77.8875 73.8C79.0875 71.8875 79.6875 69.7125 79.6875 67.5C79.6875 60.7875 74.2125 55.3125 67.5 55.3125Z" fill="white"/>
<path d="M65.362 74.0252C64.6495 74.0252 63.937 73.7628 63.3745 73.2003L59.6621 69.4879C58.5746 68.4004 58.5746 66.6001 59.6621 65.5126C60.7496 64.4251 62.5496 64.4251 63.6371 65.5126L65.4371 67.3128L71.437 61.7626C72.562 60.7126 74.362 60.7878 75.412 61.9128C76.462 63.0378 76.3871 64.8378 75.2621 65.8878L67.2746 73.2752C66.7121 73.7627 66.037 74.0252 65.362 74.0252Z" fill="#31C7D5"/>
</svg>
