<svg width="63" height="63" viewBox="0 0 63 63" fill="none" xmlns="http://www.w3.org/2000/svg">
<path d="M0.166656 44.555C0.490956 44.1724 0.815256 43.8221 1.39413 44.0443C1.973 44.2664 1.9957 44.735 1.99408 45.2474C1.99408 49.3401 1.99408 53.4333 1.99408 57.527C1.99408 59.5198 3.0821 60.6078 5.07492 60.6078H57.5319C59.5166 60.6078 60.6014 59.5133 60.603 57.5173C60.603 54.5986 60.603 51.6799 60.603 48.6753H59.935C56.8947 48.6753 53.856 48.6753 50.8157 48.6753C46.8771 48.6623 43.8238 45.8928 43.4087 41.9736C42.9871 37.9977 46.2755 34.1904 50.2773 34.1045C53.4587 34.0396 56.6401 34.0867 59.8215 34.0834H60.6127V31.0626C60.6127 30.2308 60.6257 29.4005 60.6127 28.5687C60.5933 27.6428 60.0177 27.0607 59.0983 27.0088C58.8356 26.9942 58.5713 27.0088 58.307 27.0088C41.1191 27.0088 23.9351 27.0121 6.75479 27.0186C5.05384 27.0186 3.44532 26.8321 2.00057 25.5592V26.3262C2.00057 30.9864 2.0103 35.6482 1.98273 40.3083C1.97555 40.6982 1.83017 41.0729 1.57249 41.3656C1.17361 41.7661 0.641754 41.552 0.176385 40.9164V20.5975C0.221787 20.4677 0.276916 20.3413 0.310967 20.2099C0.842817 18.1976 2.07516 16.8048 4.05987 16.1789C4.72144 15.9681 5.45273 15.9357 6.15484 15.9065C7.19908 15.8627 8.24656 15.8951 9.35729 15.8951V13.7029C9.35729 10.8052 9.35729 7.90925 9.35729 5.01326C9.36864 2.50805 10.6221 0.901148 13.0348 0.257414C13.0891 0.234324 13.1399 0.203761 13.1856 0.166611H27.2926C27.6883 0.476316 28.0402 0.815209 27.8229 1.38273C27.6056 1.95026 27.1419 2.01674 26.6262 1.99079C26.4851 1.99079 26.3425 1.99079 26.1998 1.99079H14.2185C12.2727 1.99079 11.1766 3.08368 11.175 5.04569C11.175 11.5317 11.175 18.0177 11.175 24.5036C11.175 24.7144 11.2042 24.9268 11.2204 25.1376H19.9846C14.7098 19.4948 15.9957 11.3549 20.557 7.16174C24.9545 3.11936 31.8182 2.69128 36.6098 6.30397C39.0615 8.1541 40.704 10.5701 41.3607 13.5715C42.3109 17.9204 41.1986 21.7649 38.1907 25.1474H47.0116C47.0279 24.9398 47.0506 24.7631 47.0506 24.5863C47.0506 18.042 47.0506 11.4971 47.0506 4.95164C47.0506 3.08044 45.9155 1.99728 44.0313 1.99566C39.8792 1.99566 35.7255 1.99566 31.5702 1.99566C31.0464 1.99566 30.5762 1.92594 30.38 1.37139C30.1838 0.816834 30.5097 0.453615 30.941 0.166611H45.048C48.1289 1.01141 48.9866 3.13395 48.9023 5.80942C48.805 8.90647 48.8796 12.01 48.8796 15.1103V15.8951H49.6044C50.9016 15.8951 52.1988 15.8805 53.496 15.8951C55.2796 15.9211 56.5963 16.9961 56.9109 18.6727C56.9575 18.9948 56.9754 19.3204 56.9644 19.6456C56.9644 21.465 56.9644 23.2859 56.9644 25.1506C57.2125 25.162 57.4103 25.1749 57.613 25.1782C58.2 25.1863 58.7902 25.1539 59.3739 25.2041C61.0457 25.3484 61.9472 26.3959 62.4418 27.8958V58.5421C62.0835 59.2961 61.8078 60.1068 61.344 60.7895C60.6954 61.7461 59.6382 62.1466 58.5502 62.4336H4.06797C2.89077 62.1353 1.79788 61.6505 1.1201 60.603C0.713101 59.9755 0.484469 59.2328 0.176385 58.5421L0.166656 44.555ZM29.1103 25.1782C30.954 25.1782 32.7992 25.1652 34.6429 25.1863C35.0862 25.2029 35.5198 25.0538 35.859 24.7679C37.6013 23.3716 38.866 21.4679 39.478 19.3206C40.0899 17.1733 40.0187 14.8888 39.2743 12.7838C38.5298 10.6788 37.149 8.85751 35.3231 7.57237C33.4973 6.28723 31.3169 5.6019 29.0841 5.61136C26.8514 5.62083 24.6769 6.32462 22.862 7.6252C21.0471 8.92577 19.6818 10.7587 18.9552 12.87C18.2286 14.9812 18.1768 17.2662 18.8069 19.4082C19.437 21.5502 20.7179 23.4432 22.4719 24.8247C22.7584 25.034 23.1016 25.1515 23.4562 25.162C25.3404 25.1944 27.2262 25.1782 29.1103 25.1782ZM60.5673 46.8219V35.9271C57.0292 35.9271 53.5219 35.8022 50.0276 35.966C47.1089 36.1022 44.9199 38.9771 45.2345 41.8601C45.5491 44.7431 47.8175 46.8203 50.78 46.8397C53.8787 46.8608 56.9774 46.8397 60.076 46.8397C60.2366 46.8478 60.3922 46.8316 60.569 46.8219H60.5673ZM9.31026 17.7858C7.86227 17.7858 6.49049 17.7858 5.1187 17.7858C4.97715 17.7949 4.8375 17.8233 4.7036 17.8701C3.85828 18.1094 3.12458 18.6395 2.63186 19.3669C2.13913 20.0942 1.91901 20.9722 2.0103 21.846C2.21947 23.7042 3.72097 25.089 5.67812 25.162C6.70939 25.2041 7.7439 25.1506 8.77517 25.1847C9.23568 25.1993 9.36053 25.042 9.35729 24.5961C9.33621 22.4881 9.35729 20.3802 9.34594 18.2722C9.34594 18.123 9.32324 17.9641 9.31026 17.7858ZM55.1353 25.1782C55.1353 23.2032 55.1353 21.3028 55.1353 19.4024C55.1353 18.3468 54.5419 17.7452 53.4765 17.7242C52.3026 17.7031 51.127 17.7242 49.9514 17.7242H48.9785C48.9218 17.8474 48.891 17.8863 48.891 17.9204C48.8829 20.2099 48.8829 22.4995 48.8699 24.789C48.8699 25.1863 49.105 25.1847 49.3871 25.1847C50.5416 25.1847 51.6961 25.1847 52.8507 25.1847L55.1353 25.1782Z" fill="#4F4F4F"/>
<path d="M33.516 14.5737C33.6943 14.6401 33.824 14.692 33.957 14.7358C34.9121 15.0601 35.452 15.7638 35.465 16.7805C35.4844 18.2982 35.4877 19.8192 35.465 21.3369C35.4455 22.6341 34.5586 23.4951 33.2614 23.5C30.4854 23.513 27.7105 23.513 24.9366 23.5C23.6394 23.5 22.7719 22.613 22.7557 21.3142C22.7363 19.8143 22.7395 18.3161 22.7557 16.8178C22.7654 15.7671 23.2811 15.0698 24.2913 14.7374C24.5945 14.6369 24.6999 14.5023 24.6918 14.1861C24.6756 13.4775 24.6675 12.7657 24.7129 12.0603C24.7947 10.9478 25.2944 9.90739 26.1116 9.14797C26.9287 8.38855 28.0029 7.96633 29.1185 7.96606C31.4064 7.97417 33.3765 9.80484 33.5079 12.0847C33.5565 12.9116 33.516 13.7435 33.516 14.5737ZM29.0941 21.6823C30.4108 21.6823 31.7274 21.6693 33.0441 21.6823C33.4868 21.6823 33.6603 21.5364 33.6538 21.0856C33.6359 19.7284 33.6392 18.3712 33.6538 17.014C33.6538 16.5957 33.4916 16.4481 33.0782 16.4497C30.4448 16.4627 27.8121 16.4627 25.1798 16.4497C24.7356 16.4497 24.5637 16.5924 24.5702 17.0448C24.5885 18.3809 24.5885 19.717 24.5702 21.0532C24.5621 21.5299 24.7323 21.6936 25.209 21.6855C26.5014 21.6661 27.7986 21.6823 29.0941 21.6823ZM31.6885 14.6028C31.6885 13.7191 31.7404 12.8873 31.6756 12.0636C31.5766 10.8167 30.4286 9.82105 29.1558 9.79349C27.9202 9.76592 26.7073 10.7064 26.5792 11.9176C26.4852 12.7916 26.5597 13.6851 26.5597 14.6045L31.6885 14.6028Z" fill="#31C7D5"/>
<path d="M54.3116 41.3396C54.3212 42.3032 53.9489 43.2314 53.2763 43.9214C52.6036 44.6114 51.6851 45.0071 50.7216 45.022C49.7475 45.0246 48.8119 44.6414 48.1195 43.9563C47.427 43.2711 47.034 42.3397 47.0262 41.3655C47.0427 40.4125 47.4319 39.5038 48.1105 38.8344C48.7891 38.165 49.703 37.7882 50.6562 37.7848C51.6094 37.7814 52.526 38.1517 53.2093 38.8163C53.8927 39.4808 54.2884 40.3867 54.3116 41.3396ZM52.4874 41.3963C52.4928 41.158 52.4508 40.9209 52.3637 40.6989C52.2767 40.4769 52.1465 40.2744 51.9805 40.1031C51.8146 39.9319 51.6162 39.7954 51.3971 39.7014C51.1779 39.6075 50.9422 39.558 50.7038 39.5559C50.2229 39.5515 49.7594 39.7358 49.4129 40.0693C49.0663 40.4028 48.8644 40.8589 48.8504 41.3396C48.8546 41.821 49.0439 42.2823 49.379 42.6279C49.714 42.9736 50.1693 43.1771 50.6503 43.1962C51.1319 43.1988 51.5951 43.0112 51.9391 42.6742C52.2831 42.3371 52.4802 41.8779 52.4874 41.3963Z" fill="#9D9D9D"/>
</svg>
