<svg width="66" height="65" viewBox="0 0 66 65" fill="none" xmlns="http://www.w3.org/2000/svg">
<path d="M0.318116 27.2369C0.318116 19.7976 0.318116 12.3583 0.318116 4.91904C0.318116 2.91672 1.43075 1.44595 3.26424 1.0331C3.69115 0.954044 4.12566 0.922312 4.5597 0.938495C11.2633 0.931614 17.9664 0.931614 24.6689 0.938495C32.9605 0.938495 41.2522 0.938495 49.5438 0.938495C51.5079 0.938495 52.9897 2.00157 53.4249 3.74586C53.532 4.25075 53.5782 4.76639 53.5625 5.282C53.5695 13.7316 53.566 22.1818 53.5521 30.6326C53.5521 31.3 53.7018 31.6165 54.3983 31.8608C57.9425 33.1101 60.967 35.4859 62.9978 38.6156C65.0286 41.7454 65.951 45.4524 65.6204 49.1557C64.9657 56.9551 58.6764 63.3835 50.7766 64.3261C47.1095 64.7819 43.392 64.0427 40.189 62.2208C36.986 60.3989 34.4724 57.5939 33.0302 54.232C32.8091 53.716 32.5688 53.5439 31.9959 53.5439C22.8987 53.5646 13.8009 53.5646 4.70248 53.5439C4.15921 53.5552 3.61672 53.4974 3.08838 53.3719C1.37329 52.9212 0.325083 51.4797 0.319859 49.6116C0.309412 45.5054 0.319859 41.3976 0.319859 37.2915L0.318116 27.2369ZM21.8917 2.3869H4.49353C2.67397 2.3869 1.78944 3.2728 1.78944 5.09449V49.3363C1.78944 51.2079 2.64611 52.0628 4.52836 52.0628H32.2136C30.8485 46.0421 32.0394 40.6872 36.281 36.206C40.5226 31.7249 45.8942 30.1853 52.072 31.1555V30.4812C52.072 21.988 52.072 13.496 52.072 5.00505C52.072 3.28485 51.1666 2.3869 49.4184 2.3869C43.8466 2.3869 38.2747 2.3869 32.7028 2.3869C32.473 2.3869 32.2432 2.4041 31.9698 2.41615V3.25044C31.9698 7.48557 31.9698 11.7207 31.9524 15.9558C31.9524 16.2517 31.7782 16.6818 31.5536 16.8005C31.329 16.9192 30.8763 16.8159 30.6238 16.656C29.5669 15.9782 28.5344 15.2626 27.5193 14.5212C27.1066 14.2202 26.8054 14.1858 26.377 14.5057C25.402 15.2259 24.4013 15.914 23.3752 16.57C23.0827 16.7557 22.6456 16.9002 22.3305 16.8314C21.8377 16.7248 21.8899 16.219 21.8899 15.7993C21.8899 11.5848 21.8899 7.37147 21.8899 3.15927L21.8917 2.3869ZM64.203 47.6712C64.1957 43.6023 62.5564 39.7022 59.6444 36.825C56.7323 33.9477 52.7847 32.3278 48.6662 32.3201C40.15 32.3201 33.1695 39.2009 33.1416 47.6213C33.1138 56.0417 40.1065 62.9896 48.6384 63.0033C52.7578 63.002 56.7087 61.3875 59.6255 58.5136C62.5423 55.6398 64.1871 51.7409 64.1995 47.6712H64.203ZM30.4549 14.762V2.44195H23.4187V14.6932C23.4786 14.6847 23.5372 14.6685 23.5928 14.645C24.2893 14.1703 24.9858 13.6943 25.6823 13.2173C26.6904 12.5292 27.2024 12.5292 28.2262 13.2328C28.9488 13.7282 29.6714 14.2253 30.4549 14.762Z" fill="#4F4F4F"/>
<path d="M9.21772 41.4681H6.93499C6.4579 41.4681 6.11489 41.2616 6.09922 40.7628C6.08006 40.2192 6.43701 40.0128 6.9437 40.0128C8.48873 40.0128 10.0332 40.0128 11.5771 40.0128C12.0594 40.0128 12.385 40.2278 12.378 40.7387C12.371 41.2496 12.0472 41.4595 11.5666 41.4646C10.7848 41.4681 10.0013 41.4681 9.21772 41.4681Z" fill="#9D9D9D"/>
<path d="M9.23688 45.6378C8.47423 45.6378 7.71332 45.6378 6.95241 45.6378C6.45095 45.6378 6.08181 45.4366 6.09922 44.8913C6.11664 44.346 6.491 44.1757 6.99246 44.1774C8.49338 44.1774 9.99373 44.1774 11.4935 44.1774C11.9967 44.1774 12.3641 44.3494 12.378 44.8964C12.3919 45.4435 12.0298 45.6361 11.5196 45.6361L9.23688 45.6378Z" fill="#9D9D9D"/>
<path d="M61.4957 47.678C61.4926 50.1834 60.7376 52.6317 59.3261 54.7131C57.9146 56.7946 55.91 58.4158 53.5659 59.3717C51.2217 60.3277 48.6433 60.5754 46.1566 60.0837C43.67 59.5919 41.3868 58.3827 39.5957 56.6089C37.8047 54.8351 36.5863 52.5765 36.0946 50.1187C35.6029 47.6608 35.86 45.1141 36.8333 42.8006C37.8066 40.4871 39.4526 38.5106 41.5629 37.1213C43.6732 35.7319 46.1532 34.9919 48.6892 34.995C50.3737 34.9948 52.0416 35.3229 53.5976 35.9606C55.1535 36.5982 56.5667 37.533 57.7564 38.7111C58.9461 39.8893 59.8887 41.2878 60.5304 42.8265C61.1721 44.3652 61.5001 46.0139 61.4957 47.678ZM60.0244 47.6471C60.0217 45.4275 59.3525 43.2587 58.1015 41.415C56.8506 39.5714 55.0742 38.1358 52.997 37.2899C50.9199 36.4441 48.6355 36.226 46.4329 36.6633C44.2303 37.1007 42.2085 38.1737 40.6234 39.7466C39.0383 41.3196 37.9612 43.3217 37.5283 45.4997C37.0955 47.6777 37.3264 49.9335 38.1918 51.9818C39.0572 54.0301 40.5182 55.7787 42.3899 57.0063C44.2617 58.2339 46.4599 58.8854 48.7066 58.8783C51.7123 58.8633 54.5899 57.6736 56.7106 55.5691C58.8312 53.4647 60.0226 50.6166 60.0244 47.6471Z" fill="#31C7D5"/>
<path d="M46.1087 48.1047C48.1146 46.123 50.0177 44.2032 51.9748 42.3385C52.4091 41.9277 52.9455 41.6375 53.5297 41.4974C54.5431 41.2823 55.506 41.8552 55.95 42.7462C56.1724 43.1824 56.2482 43.6772 56.1664 44.1589C56.0847 44.6405 55.8497 45.0839 55.4955 45.4246C54.2976 46.6425 53.07 47.8329 51.8547 49.037C50.4849 50.3914 49.1152 51.7446 47.7454 53.0967C46.6659 54.1546 45.6386 54.158 44.5677 53.1087C43.6867 52.2486 42.8074 51.3885 41.9368 50.5078C40.9269 49.4929 40.9025 48.0444 41.8654 47.1121C42.8283 46.1797 44.2543 46.2365 45.2607 47.2015C45.5411 47.4699 45.7935 47.7675 46.1087 48.1047ZM54.6859 43.9572C54.6963 43.1178 53.9894 42.6981 53.4078 43.0369C53.21 43.1688 53.0293 43.3242 52.8698 43.4997C50.8709 45.471 48.8726 47.4435 46.8748 49.4172C46.288 49.9952 46.0042 49.9883 45.4018 49.4086C45.0309 49.0473 44.6687 48.6758 44.2944 48.318C43.8016 47.8449 43.3088 47.7899 42.9223 48.1459C42.5357 48.502 42.574 49.0456 43.0685 49.5462C43.9078 50.3856 44.7697 51.2045 45.595 52.0577C45.9816 52.455 46.2828 52.4688 46.6798 52.0732C49.2202 49.5445 51.7781 47.0312 54.3185 44.5043C54.4638 44.338 54.5873 44.1542 54.6859 43.9572Z" fill="#31C7D5"/>
</svg>
