<svg width="70" height="68" viewBox="0 0 70 68" fill="none" xmlns="http://www.w3.org/2000/svg">
<path d="M23.6525 7.75542C23.6525 7.12263 23.6424 6.62083 23.6525 6.12306C23.6987 3.96271 25.1851 2.33439 27.323 2.31222C32.2989 2.26251 37.2754 2.26251 42.2526 2.31222C44.3584 2.33439 45.8347 3.95063 45.897 6.07067C45.9131 6.59262 45.897 7.11658 45.897 7.75139H59.9758C62.7333 7.75139 64.3262 9.34142 64.3282 12.1124C64.3282 22.5917 64.3282 33.071 64.3282 43.5503C64.3282 46.3354 62.7474 47.9173 59.9899 47.9173H9.24181C6.52862 47.9173 4.93771 46.3253 4.93771 43.5987C4.93771 33.0965 4.93771 22.595 4.93771 12.0943C4.93771 9.33537 6.53264 7.76146 9.30818 7.75944H23.6525V7.75542ZM62.8117 26.4025C60.5551 29.4758 57.6086 30.7797 54.0285 30.5781C53.58 33.6151 52.5241 34.9794 50.4425 35.0117C49.6216 34.9977 48.8189 34.7669 48.1154 34.3426C46.7558 33.5365 46.4461 32.1137 46.4743 30.6265H22.8218C22.4699 33.5486 21.3737 34.9714 19.2619 35.0097C18.4403 34.9993 17.6361 34.7712 16.9309 34.3487C15.5612 33.5426 15.2696 32.1138 15.2897 30.556C13.5298 30.6547 11.8967 30.4592 10.3601 29.7499C8.79147 29.0035 7.44649 27.8567 6.46024 26.4247V39.6911H62.8117V26.4025ZM62.8117 41.263H6.40392V43.3911C6.40392 45.5535 7.26474 46.414 9.42081 46.414H59.8652C60.0422 46.414 60.2172 46.414 60.3942 46.414C61.6914 46.3737 62.681 45.5555 62.8077 44.2718C62.8922 43.3044 62.8198 42.319 62.8198 41.259L62.8117 41.263ZM15.3178 28.97C15.3178 27.8374 15.3178 26.6847 15.3178 25.5319C15.3178 24.6593 15.519 24.48 16.3999 24.478C18.1081 24.478 19.8157 24.478 21.5226 24.478C22.5624 24.478 22.7434 24.6614 22.7454 25.7093C22.7454 26.8096 22.7454 27.9079 22.7454 29.0163H31.0157V15.7519H6.40392C6.40392 17.481 6.39387 19.1617 6.40392 20.8445C6.39843 21.423 6.43743 22.001 6.52057 22.5736C7.19234 26.6786 11.3617 29.7438 15.3259 28.976L15.3178 28.97ZM62.8519 14.17V12.3462C62.8519 10.1052 61.9811 9.22856 59.7526 9.22856H9.45702C9.20561 9.22856 8.95219 9.21849 8.70279 9.24267C7.669 9.34142 6.70159 10.0105 6.54672 10.9597C6.37576 12.0076 6.418 13.0878 6.36571 14.1679L62.8519 14.17ZM46.4903 29.0304C46.4903 27.8213 46.4903 26.6665 46.4903 25.5138C46.4903 24.7077 46.7357 24.484 47.5281 24.478C48.6826 24.478 49.8391 24.4639 50.9956 24.478C54.2981 24.5163 53.9059 23.9842 53.93 27.386C53.93 27.9301 53.93 28.4722 53.93 28.9982C57.9103 29.5322 61.6673 26.9829 62.5663 23.1842C62.7876 22.241 62.8077 21.2415 62.8359 20.2641C62.8781 18.7627 62.8479 17.2593 62.8479 15.756H38.5117V29.0345L46.4903 29.0304ZM44.4127 7.69496C44.4127 7.04403 44.4529 6.46566 44.4127 5.89333C44.382 5.31886 44.1297 4.77884 43.709 4.38737C43.2882 3.9959 42.7321 3.78365 42.1581 3.79545C37.2305 3.77664 32.3036 3.77664 27.3773 3.79545C26.8551 3.78733 26.3476 3.9687 25.9484 4.30611C25.5492 4.64353 25.2852 5.11421 25.2052 5.63134C25.1227 6.29436 25.1891 6.9735 25.1891 7.69294L44.4127 7.69496ZM32.6267 15.7459V29.0183H36.953V15.7459H32.6267ZM16.8504 26.0237C16.8504 27.9422 16.774 29.8244 16.8786 31.6946C16.9409 32.813 17.9848 33.5748 19.0749 33.5547C20.165 33.5345 21.1706 32.7224 21.2229 31.616C21.3053 29.768 21.245 27.9119 21.245 26.0237H16.8504ZM48.0028 26.0136C48.0028 27.9079 47.9465 29.7378 48.0229 31.5636C48.0692 32.676 49.0547 33.5083 50.1287 33.5526C51.249 33.599 52.321 32.8292 52.3874 31.6724C52.494 29.8023 52.4155 27.924 52.4155 26.0136H48.0028Z" fill="#4F4F4F"/>
<path d="M10.9051 61.3489C11.8866 61.3489 12.8661 61.3489 13.8456 61.3489C15.0725 61.3308 15.9373 60.5428 15.9534 59.4445C15.9695 58.3462 15.1247 57.53 13.8858 57.5099C12.0013 57.4796 10.1167 57.5099 8.23014 57.4978C6.86249 57.4978 6.62113 57.1108 7.20641 55.8432C9.87736 50.0192 17.9144 49.2554 21.6875 54.485C21.8217 54.7026 22.0133 54.8789 22.2411 54.9944C22.469 55.11 22.7242 55.1603 22.9787 55.1399C29.8921 55.1211 36.8041 55.1211 43.7148 55.1399C43.969 55.1589 44.2235 55.1083 44.4513 54.9937C44.6791 54.8791 44.8715 54.7046 45.008 54.489C46.8644 51.9639 49.4087 50.7568 52.5141 51.0087C55.8407 51.2767 58.2361 53.0239 59.644 56.0649C60.1227 57.1028 59.8451 57.4937 58.6846 57.4978C56.7498 57.4978 54.8149 57.4837 52.8801 57.4978C51.611 57.5139 50.7904 58.2736 50.7663 59.38C50.7421 60.4864 51.5929 61.3247 52.8037 61.3368C54.7405 61.357 56.6754 61.3368 58.6102 61.3368C59.8934 61.3368 60.1528 61.7399 59.5857 62.9067C58.218 65.7462 55.9976 67.4894 52.8499 67.838C49.5294 68.2088 46.8443 66.9795 44.8914 64.2489C44.7831 64.0723 44.628 63.9293 44.4433 63.8361C44.2586 63.7428 44.0516 63.7029 43.8455 63.7209C36.8584 63.733 29.8713 63.733 22.8842 63.7209C22.3371 63.7209 22.0455 63.9224 21.7317 64.3416C19.7607 67.0158 17.0918 68.239 13.8013 67.834C10.698 67.4511 8.49161 65.718 7.16418 62.8886C6.63522 61.7661 6.91478 61.3449 8.12355 61.3409C9.05476 61.3469 9.97592 61.3489 10.9051 61.3489ZM43.8274 56.6836H22.8661C23.4344 58.4807 23.44 60.409 22.8822 62.2094H43.7993C43.2625 60.4053 43.2723 58.4821 43.8274 56.6836ZM57.8419 62.8785C57.5824 62.8664 57.3411 62.8462 57.0997 62.8462C55.6919 62.8462 54.284 62.8462 52.8761 62.8462C50.7703 62.8221 49.28 61.3791 49.28 59.3961C49.28 57.4131 50.7522 56.0488 52.8479 56.0186C54.3041 55.9984 55.7602 56.0186 57.2184 56.0186C57.4195 56.0186 57.6347 55.9863 57.8761 55.9662C56.5104 53.2859 53.1174 51.8833 50.0804 52.6773C48.5575 53.0659 47.2124 53.9636 46.2675 55.2218C45.3225 56.4801 44.8343 58.0237 44.8833 59.5977C45.004 62.9752 47.3109 65.7361 50.5149 66.3286C53.5036 66.8788 56.782 65.3552 57.8419 62.8785ZM8.91196 62.8442C9.79692 65.2424 13.1054 66.8203 16.0761 66.3367C19.3122 65.8087 21.8263 62.8221 21.8383 59.4667C21.8524 56.1818 19.4389 53.2194 16.2571 52.6007C13.2402 52.0183 9.86731 53.5459 8.89386 56.0266H9.72451C11.2571 56.0266 12.7897 55.9944 14.3182 56.0629C15.9735 56.1334 17.2366 57.4353 17.4115 59.12C17.4868 59.9029 17.2868 60.6876 16.8461 61.3384C16.4055 61.9893 15.7518 62.4656 14.998 62.685C14.5104 62.7998 14.0105 62.8533 13.5097 62.8442C11.9852 62.8563 10.4626 62.8442 8.91196 62.8442Z" fill="#31C7D5"/>
<path d="M62.1239 63.2998C62.127 62.322 62.5148 61.385 63.2031 60.6919C63.8914 59.9988 64.8247 59.6057 65.8005 59.5977C66.7857 59.5927 67.7326 59.98 68.4328 60.6744C69.133 61.3689 69.5293 62.3136 69.5344 63.3008C69.5394 64.2879 69.1529 65.2367 68.4598 65.9383C67.7667 66.64 66.8239 67.037 65.8387 67.0421C65.3482 67.0453 64.8621 66.9506 64.4086 66.7634C63.9551 66.5763 63.5434 66.3004 63.1975 65.952C62.8517 65.6036 62.5786 65.1895 62.3942 64.7342C62.2099 64.2788 62.118 63.7911 62.1239 63.2998ZM68.037 63.3159C68.0318 62.8803 67.8986 62.456 67.6541 62.0958C67.4097 61.7356 67.0647 61.4556 66.6623 61.2907C66.26 61.1258 65.818 61.0833 65.3917 61.1685C64.9654 61.2538 64.5736 61.463 64.2653 61.77C63.9569 62.0771 63.7457 62.4683 63.6579 62.8949C63.5701 63.3216 63.6098 63.7646 63.7718 64.1688C63.9339 64.573 64.2112 64.9204 64.5691 65.1676C64.927 65.4148 65.3497 65.5509 65.7844 65.5589C66.3792 65.5583 66.9497 65.3223 67.3717 64.9022C67.7936 64.4821 68.0327 63.9119 68.037 63.3159Z" fill="#9D9D9D"/>
<path d="M6.39367 3.04972C6.39446 3.63782 6.22101 4.21293 5.8953 4.70217C5.56958 5.19141 5.10626 5.57276 4.56403 5.79791C4.02181 6.02305 3.42508 6.08186 2.84947 5.96689C2.27385 5.8519 1.74525 5.56831 1.33065 5.15203C0.916041 4.73576 0.634093 4.20553 0.520515 3.62854C0.406937 3.05155 0.466844 2.45377 0.692652 1.91093C0.91846 1.36809 1.3 0.904622 1.78894 0.579258C2.27787 0.253894 2.85219 0.0812736 3.43913 0.083268C3.82845 0.0803066 4.21448 0.155058 4.57467 0.303163C4.93486 0.451268 5.26201 0.669761 5.53703 0.945893C5.81206 1.22203 6.02945 1.55027 6.17653 1.91148C6.3236 2.27268 6.39742 2.65962 6.39367 3.04972ZM3.44919 1.55843C3.15651 1.55606 2.8697 1.64067 2.62501 1.80157C2.38031 1.96247 2.18871 2.19244 2.07442 2.46242C1.96013 2.7324 1.92828 3.03027 1.9829 3.31838C2.03751 3.60649 2.17614 3.87192 2.38127 4.08111C2.58639 4.2903 2.8488 4.43387 3.13533 4.49367C3.42186 4.55347 3.71966 4.52682 3.99108 4.41708C4.2625 4.30735 4.49537 4.11946 4.66024 3.87716C4.82512 3.63485 4.91461 3.34901 4.9174 3.05576C4.9185 2.66283 4.765 2.2853 4.49016 2.00501C4.21532 1.72472 3.8413 1.56426 3.44919 1.55843Z" fill="#31C7D5"/>
<path d="M4.17544 60.0491C4.16133 60.2695 4.08194 60.4807 3.94741 60.6557C3.81288 60.8307 3.62934 60.9615 3.42023 61.0314C3.21112 61.1013 2.98596 61.1071 2.77353 61.0481C2.5611 60.9891 2.37105 60.868 2.22769 60.7002C2.08432 60.5324 1.99416 60.3256 1.96871 60.1062C1.94327 59.8868 1.9837 59.6648 2.08485 59.4686C2.18599 59.2723 2.34325 59.1107 2.53652 59.0045C2.72978 58.8983 2.95028 58.8522 3.16981 58.8722C3.45625 58.9013 3.72052 59.0398 3.90777 59.2589C4.09501 59.4781 4.19086 59.761 4.17544 60.0491Z" fill="#2A3890"/>
<path d="M14.5696 1.96161C14.5628 2.17955 14.4918 2.39059 14.3655 2.56813C14.2391 2.74568 14.0632 2.88178 13.8598 2.95929C13.6564 3.0368 13.4347 3.05224 13.2225 3.00367C13.0104 2.95511 12.8173 2.8447 12.6677 2.68637C12.5181 2.52805 12.4186 2.32889 12.3818 2.11399C12.3449 1.8991 12.3724 1.67808 12.4607 1.47881C12.549 1.27954 12.6943 1.11092 12.8781 0.994216C13.0619 0.877509 13.2761 0.817933 13.4936 0.822999C13.7862 0.833517 14.0629 0.958752 14.2641 1.17173C14.4654 1.3847 14.5751 1.66836 14.5696 1.96161Z" fill="#2A3890"/>
<path d="M35.3841 50.261C35.3888 50.116 35.422 49.9733 35.4818 49.8411C35.5415 49.7089 35.6267 49.5898 35.7324 49.4906C35.8381 49.3914 35.9623 49.314 36.0979 49.263C36.2335 49.2119 36.3778 49.1881 36.5225 49.193C36.7398 49.2006 36.9499 49.2726 37.1263 49.3998C37.3028 49.527 37.4376 49.7037 37.514 49.9077C37.5903 50.1116 37.6045 50.3336 37.555 50.5457C37.5055 50.7578 37.3944 50.9504 37.2358 51.0993C37.0771 51.2481 36.878 51.3466 36.6635 51.3821C36.4491 51.4177 36.2289 51.3889 36.0308 51.2992C35.8327 51.2095 35.6656 51.0631 35.5505 50.8783C35.4354 50.6935 35.3775 50.4787 35.3841 50.261Z" fill="#2A3890"/>
<path d="M63.2461 5.27663C63.1017 5.27903 62.9581 5.25289 62.8237 5.1997C62.6893 5.14651 62.5667 5.06731 62.4629 4.96663C62.359 4.86595 62.276 4.74576 62.2185 4.61292C62.161 4.48008 62.1302 4.33719 62.1279 4.19242C62.126 3.97671 62.1877 3.76523 62.3054 3.58458C62.4231 3.40392 62.5914 3.26214 62.7893 3.17707C62.9871 3.09199 63.2056 3.06741 63.4174 3.10641C63.6291 3.14541 63.8247 3.24625 63.9794 3.39626C64.1341 3.54627 64.2411 3.73876 64.287 3.94953C64.3329 4.16031 64.3155 4.37996 64.2372 4.5809C64.1588 4.78183 64.0229 4.95508 63.8466 5.07886C63.6703 5.20265 63.4614 5.27146 63.2461 5.27663Z" fill="#9D9D9D"/>
<path d="M65.7964 54.0477C65.7884 54.3379 65.6657 54.6131 65.4552 54.8126C65.2448 55.0122 64.9638 55.1197 64.6741 55.1117C64.3845 55.1037 64.1099 54.9807 63.9107 54.7698C63.7116 54.559 63.6042 54.2774 63.6122 53.9872C63.6202 53.697 63.7429 53.4218 63.9534 53.2223C64.1639 53.0227 64.4448 52.9152 64.7345 52.9232C65.0241 52.9312 65.2987 53.0542 65.4979 53.2651C65.697 53.4759 65.8044 53.7575 65.7964 54.0477Z" fill="#31C7D5"/>
<path d="M2.69515 29.4819C2.69552 29.7031 2.63015 29.9195 2.50736 30.1034C2.38457 30.2873 2.20992 30.4304 2.00567 30.5145C1.80141 30.5986 1.57679 30.6199 1.36043 30.5756C1.14407 30.5314 0.945747 30.4236 0.790742 30.266C0.635737 30.1084 0.531066 29.9081 0.490054 29.6907C0.449041 29.4733 0.473549 29.2486 0.560455 29.0452C0.647361 28.8417 0.792731 28.6689 0.978046 28.5485C1.16336 28.4282 1.38023 28.3658 1.60103 28.3695C1.89235 28.3747 2.17002 28.4941 2.37454 28.7021C2.57905 28.91 2.69415 29.1899 2.69515 29.4819Z" fill="#9D9D9D"/>
</svg>
